<mxfile host="app.diagrams.net" agent="Mozilla/5.0 (Windows NT 10.0; Win64; x64) AppleWebKit/537.36 (KHTML, like Gecko) Chrome/137.0.0.0 Safari/537.36 Edg/137.0.0.0" version="27.1.4">
  <diagram name="Page-1" id="_KFmkRTHLerocBuyGgIO">
    <mxGraphModel dx="5230" dy="5973" grid="1" gridSize="10" guides="1" tooltips="1" connect="1" arrows="1" fold="1" page="1" pageScale="1" pageWidth="3300" pageHeight="4681" math="0" shadow="0">
      <root>
        <mxCell id="0" />
        <mxCell id="1" parent="0" />
        <UserObject label="" plantUmlData="{&#xa;  &quot;data&quot;: &quot;@startuml\nactor User\nparticipant \&quot;Login Screen\&quot; as Login\nparticipant \&quot;Sign Up Screen\&quot; as SignUp\nparticipant \&quot;Gmail / Email\&quot; as Email\nparticipant \&quot;Browser\&quot; as Browser\nparticipant \&quot;Check Email Screen\&quot; as CheckEmail\nparticipant \&quot;Backend Server / Firebase\&quot; as Backend\n\n== User Login Process ==\nUser -&gt; Login : Open App\nUser -&gt; Login : Enter Email and Password\nUser -&gt; Login : Click \&quot;Login\&quot;\nLogin -&gt; Backend : Send credentials for authentication\nBackend --&gt; Login : Valid credentials? → Yes\nLogin -&gt; User : Navigate to Home Screen\n\nalt Invalid credentials\nBackend --&gt; Login : Return \&quot;Invalid credentials\&quot; error\nLogin -&gt; User : Show error message\nend\n\n== Forgot Password Process ==\nUser -&gt; Login : Click \&quot;Forgot Password?\&quot;\nLogin -&gt; CheckEmail : Navigate to Forgot Password Screen\nUser -&gt; CheckEmail : Enter registered Email\nUser -&gt; CheckEmail : Click \&quot;Continue\&quot;\nCheckEmail -&gt; Backend : Send Email for password reset\nBackend -&gt; CheckEmail : Check if Email exists\n\nalt Email exists\nBackend -&gt; Backend : Generate reset code or link\nBackend -&gt; Email : Send reset email\nCheckEmail -&gt; User : Show message \&quot;We sent a reset link to your email\&quot;\nend\n\nUser -&gt; CheckEmail : Enter 5-digit code\nUser -&gt; CheckEmail : Click \&quot;Verify\&quot;\nCheckEmail -&gt; Backend : Send code for verification\nBackend -&gt; Backend : Validate code\n\nalt Code is valid\nBackend --&gt; CheckEmail : Code verified\nCheckEmail -&gt; User : Navigate to \&quot;Set New Password\&quot; screen\nelse Code is invalid or expired\nBackend --&gt; CheckEmail : Return error\nCheckEmail -&gt; User : Show \&quot;Invalid or expired code\&quot; message\nend\n\nUser -&gt; CheckEmail : Click \&quot;Resend Email\&quot;\nCheckEmail -&gt; Backend : Request to resend reset email\nBackend -&gt; Email : Resend email\nCheckEmail -&gt; User : Show \&quot;Email resent\&quot; message\n\n== Sign Up Process ==\nUser -&gt; Login : Click \&quot;Sign up\&quot;\nLogin -&gt; SignUp : Navigate to Registration Screen\nUser -&gt; SignUp : Enter Email, Password, Confirm Password\nUser -&gt; SignUp : Click \&quot;Sign Up\&quot;\nSignUp -&gt; Backend : Send user data to create account\nBackend -&gt; Backend : Create account in Firebase\nBackend -&gt; Email : Send verification email with link\n\n== Email Verification ==\nUser -&gt; Email : Open Gmail and click verification link\nEmail -&gt; Browser : Open verification link\nBrowser -&gt; Backend : Verify email token\nBackend -&gt; Browser : Return \&quot;Success\&quot; message\n\n== After Verification ==\nBrowser -&gt; User : See \&quot;Success\&quot; message\nUser -&gt; Login : Return to App Login Screen\nUser -&gt; Login : Enter Email &amp; Password\nUser -&gt; Login : Click \&quot;Login\&quot;\nLogin -&gt; Backend : Authenticate\nBackend --&gt; Login : Valid credentials → Yes\nLogin -&gt; User : Navigate to Home Screen\n\n@enduml\n&quot;,&#xa;  &quot;format&quot;: &quot;svg&quot;&#xa;}" id="4WhxPVM3n58UsrzAHElg-1">
          <mxCell style="shape=image;noLabel=1;verticalAlign=top;aspect=fixed;imageAspect=0;image=data:image/svg+xml,PHN2ZyB4bWxucz0iaHR0cDovL3d3dy53My5vcmcvMjAwMC9zdmciIHhtbG5zOnhsaW5rPSJodHRwOi8vd3d3LnczLm9yZy8xOTk5L3hsaW5rIiBjb250ZW50U3R5bGVUeXBlPSJ0ZXh0L2NzcyIgZGF0YS1kaWFncmFtLXR5cGU9IlNFUVVFTkNFIiBoZWlnaHQ9IjE4NDNweCIgcHJlc2VydmVBc3BlY3RSYXRpbz0ibm9uZSIgc3R5bGU9IndpZHRoOjEyNzZweDtoZWlnaHQ6MTg0M3B4O2JhY2tncm91bmQ6I0ZGRkZGRjsiIHZlcnNpb249IjEuMSIgdmlld0JveD0iMCAwIDEyNzYgMTg0MyIgd2lkdGg9IjEyNzZweCIgem9vbUFuZFBhbj0ibWFnbmlmeSI+PGRlZnMvPjxnPjxyZWN0IGZpbGw9Im5vbmUiIGhlaWdodD0iNzEuNzQyMiIgc3R5bGU9InN0cm9rZTojMDAwMDAwO3N0cm9rZS13aWR0aDoxLjU7IiB3aWR0aD0iMTE1OS41IiB4PSIxMCIgeT0iMzA2LjM4MjgiLz48cmVjdCBmaWxsPSJub25lIiBoZWlnaHQ9IjExMi42NTYzIiBzdHlsZT0ic3Ryb2tlOiMwMDAwMDA7c3Ryb2tlLXdpZHRoOjEuNTsiIHdpZHRoPSIxMjQ5LjUiIHg9IjEwIiB5PSI2MDEuNTIzNCIvPjxyZWN0IGZpbGw9Im5vbmUiIGhlaWdodD0iMTQxLjM0MzgiIHN0eWxlPSJzdHJva2U6IzAwMDAwMDtzdHJva2Utd2lkdGg6MS41OyIgd2lkdGg9IjExNTkuNSIgeD0iMTAiIHk9Ijg1Mi44MzU5Ii8+PGc+PHRpdGxlPlVzZXI8L3RpdGxlPjxyZWN0IGZpbGw9IiMwMDAwMDAiIGZpbGwtb3BhY2l0eT0iMC4wMDAwMCIgaGVpZ2h0PSIxNjg0LjA0NjkiIHdpZHRoPSI4IiB4PSIzMyIgeT0iNzkuOTg0NCIvPjxsaW5lIHN0eWxlPSJzdHJva2U6IzE4MTgxODtzdHJva2Utd2lkdGg6MC41O3N0cm9rZS1kYXNoYXJyYXk6NS4wLDUuMDsiIHgxPSIzNyIgeDI9IjM3IiB5MT0iNzkuOTg0NCIgeTI9IjE3NjQuMDMxMyIvPjwvZz48Zz48dGl0bGU+TG9naW4gU2NyZWVuPC90aXRsZT48cmVjdCBmaWxsPSIjMDAwMDAwIiBmaWxsLW9wYWNpdHk9IjAuMDAwMDAiIGhlaWdodD0iMTY4NC4wNDY5IiB3aWR0aD0iOCIgeD0iMjI2IiB5PSI3OS45ODQ0Ii8+PGxpbmUgc3R5bGU9InN0cm9rZTojMTgxODE4O3N0cm9rZS13aWR0aDowLjU7c3Ryb2tlLWRhc2hhcnJheTo1LjAsNS4wOyIgeDE9IjIzMCIgeDI9IjIzMCIgeTE9Ijc5Ljk4NDQiIHkyPSIxNzY0LjAzMTMiLz48L2c+PGc+PHRpdGxlPlNpZ24gVXAgU2NyZWVuPC90aXRsZT48cmVjdCBmaWxsPSIjMDAwMDAwIiBmaWxsLW9wYWNpdHk9IjAuMDAwMDAiIGhlaWdodD0iMTY4NC4wNDY5IiB3aWR0aD0iOCIgeD0iNDUxLjUiIHk9Ijc5Ljk4NDQiLz48bGluZSBzdHlsZT0ic3Ryb2tlOiMxODE4MTg7c3Ryb2tlLXdpZHRoOjAuNTtzdHJva2UtZGFzaGFycmF5OjUuMCw1LjA7IiB4MT0iNDU1LjUiIHgyPSI0NTUuNSIgeTE9Ijc5Ljk4NDQiIHkyPSIxNzY0LjAzMTMiLz48L2c+PGc+PHRpdGxlPkdtYWlsIC8gRW1haWw8L3RpdGxlPjxyZWN0IGZpbGw9IiMwMDAwMDAiIGZpbGwtb3BhY2l0eT0iMC4wMDAwMCIgaGVpZ2h0PSIxNjg0LjA0NjkiIHdpZHRoPSI4IiB4PSI1NzAiIHk9Ijc5Ljk4NDQiLz48bGluZSBzdHlsZT0ic3Ryb2tlOiMxODE4MTg7c3Ryb2tlLXdpZHRoOjAuNTtzdHJva2UtZGFzaGFycmF5OjUuMCw1LjA7IiB4MT0iNTczLjUiIHgyPSI1NzMuNSIgeTE9Ijc5Ljk4NDQiIHkyPSIxNzY0LjAzMTMiLz48L2c+PGc+PHRpdGxlPkJyb3dzZXI8L3RpdGxlPjxyZWN0IGZpbGw9IiMwMDAwMDAiIGZpbGwtb3BhY2l0eT0iMC4wMDAwMCIgaGVpZ2h0PSIxNjg0LjA0NjkiIHdpZHRoPSI4IiB4PSI3MzciIHk9Ijc5Ljk4NDQiLz48bGluZSBzdHlsZT0ic3Ryb2tlOiMxODE4MTg7c3Ryb2tlLXdpZHRoOjAuNTtzdHJva2UtZGFzaGFycmF5OjUuMCw1LjA7IiB4MT0iNzQwLjUiIHgyPSI3NDAuNSIgeTE9Ijc5Ljk4NDQiIHkyPSIxNzY0LjAzMTMiLz48L2c+PGc+PHRpdGxlPkNoZWNrIEVtYWlsIFNjcmVlbjwvdGl0bGU+PHJlY3QgZmlsbD0iIzAwMDAwMCIgZmlsbC1vcGFjaXR5PSIwLjAwMDAwIiBoZWlnaHQ9IjE2ODQuMDQ2OSIgd2lkdGg9IjgiIHg9Ijg0OC41IiB5PSI3OS45ODQ0Ii8+PGxpbmUgc3R5bGU9InN0cm9rZTojMTgxODE4O3N0cm9rZS13aWR0aDowLjU7c3Ryb2tlLWRhc2hhcnJheTo1LjAsNS4wOyIgeDE9Ijg1Mi41IiB4Mj0iODUyLjUiIHkxPSI3OS45ODQ0IiB5Mj0iMTc2NC4wMzEzIi8+PC9nPjxnPjx0aXRsZT5CYWNrZW5kIFNlcnZlciAvIEZpcmViYXNlPC90aXRsZT48cmVjdCBmaWxsPSIjMDAwMDAwIiBmaWxsLW9wYWNpdHk9IjAuMDAwMDAiIGhlaWdodD0iMTY4NC4wNDY5IiB3aWR0aD0iOCIgeD0iMTA2MSIgeT0iNzkuOTg0NCIvPjxsaW5lIHN0eWxlPSJzdHJva2U6IzE4MTgxODtzdHJva2Utd2lkdGg6MC41O3N0cm9rZS1kYXNoYXJyYXk6NS4wLDUuMDsiIHgxPSIxMDY0LjUiIHgyPSIxMDY0LjUiIHkxPSI3OS45ODQ0IiB5Mj0iMTc2NC4wMzEzIi8+PC9nPjxnIGNsYXNzPSJwYXJ0aWNpcGFudCBwYXJ0aWNpcGFudC1oZWFkIiBkYXRhLXBhcnRpY2lwYW50PSJVc2VyIj48dGV4dCBmaWxsPSIjMDAwMDAwIiBmb250LWZhbWlseT0ic2Fucy1zZXJpZiIgZm9udC1zaXplPSIxNCIgbGVuZ3RoQWRqdXN0PSJzcGFjaW5nIiB0ZXh0TGVuZ3RoPSIyOCIgeD0iMjAiIHk9Ijc4LjIzNDQiPlVzZXI8L3RleHQ+PGVsbGlwc2UgY3g9IjM3IiBjeT0iMTMuNSIgZmlsbD0iI0UyRTJGMCIgcng9IjgiIHJ5PSI4IiBzdHlsZT0ic3Ryb2tlOiMxODE4MTg7c3Ryb2tlLXdpZHRoOjAuNTsiLz48cGF0aCBkPSJNMzcsMjEuNSBMMzcsNDguNSBNMjQsMjkuNSBMNTAsMjkuNSBNMzcsNDguNSBMMjQsNjMuNSBNMzcsNDguNSBMNTAsNjMuNSIgZmlsbD0ibm9uZSIgc3R5bGU9InN0cm9rZTojMTgxODE4O3N0cm9rZS13aWR0aDowLjU7Ii8+PC9nPjxnIGNsYXNzPSJwYXJ0aWNpcGFudCBwYXJ0aWNpcGFudC10YWlsIiBkYXRhLXBhcnRpY2lwYW50PSJVc2VyIj48dGV4dCBmaWxsPSIjMDAwMDAwIiBmb250LWZhbWlseT0ic2Fucy1zZXJpZiIgZm9udC1zaXplPSIxNCIgbGVuZ3RoQWRqdXN0PSJzcGFjaW5nIiB0ZXh0TGVuZ3RoPSIyOCIgeD0iMjAiIHk9IjE3NzYuMjY1NiI+VXNlcjwvdGV4dD48ZWxsaXBzZSBjeD0iMzciIGN5PSIxNzg2LjUxNTYiIGZpbGw9IiNFMkUyRjAiIHJ4PSI4IiByeT0iOCIgc3R5bGU9InN0cm9rZTojMTgxODE4O3N0cm9rZS13aWR0aDowLjU7Ii8+PHBhdGggZD0iTTM3LDE3OTQuNTE1NiBMMzcsMTgyMS41MTU2IE0yNCwxODAyLjUxNTYgTDUwLDE4MDIuNTE1NiBNMzcsMTgyMS41MTU2IEwyNCwxODM2LjUxNTYgTTM3LDE4MjEuNTE1NiBMNTAsMTgzNi41MTU2IiBmaWxsPSJub25lIiBzdHlsZT0ic3Ryb2tlOiMxODE4MTg7c3Ryb2tlLXdpZHRoOjAuNTsiLz48L2c+PGcgY2xhc3M9InBhcnRpY2lwYW50IHBhcnRpY2lwYW50LWhlYWQiIGRhdGEtcGFydGljaXBhbnQ9IkxvZ2luIj48cmVjdCBmaWxsPSIjRTJFMkYwIiBoZWlnaHQ9IjI4Ljk4NDQiIHJ4PSIyLjUiIHJ5PSIyLjUiIHN0eWxlPSJzdHJva2U6IzE4MTgxODtzdHJva2Utd2lkdGg6MC41OyIgd2lkdGg9Ijk4IiB4PSIxODEiIHk9IjUwIi8+PHRleHQgZmlsbD0iIzAwMDAwMCIgZm9udC1mYW1pbHk9InNhbnMtc2VyaWYiIGZvbnQtc2l6ZT0iMTQiIGxlbmd0aEFkanVzdD0ic3BhY2luZyIgdGV4dExlbmd0aD0iODQiIHg9IjE4OCIgeT0iNzAuMjM0NCI+TG9naW4gU2NyZWVuPC90ZXh0PjwvZz48ZyBjbGFzcz0icGFydGljaXBhbnQgcGFydGljaXBhbnQtdGFpbCIgZGF0YS1wYXJ0aWNpcGFudD0iTG9naW4iPjxyZWN0IGZpbGw9IiNFMkUyRjAiIGhlaWdodD0iMjguOTg0NCIgcng9IjIuNSIgcnk9IjIuNSIgc3R5bGU9InN0cm9rZTojMTgxODE4O3N0cm9rZS13aWR0aDowLjU7IiB3aWR0aD0iOTgiIHg9IjE4MSIgeT0iMTc2My4wMzEzIi8+PHRleHQgZmlsbD0iIzAwMDAwMCIgZm9udC1mYW1pbHk9InNhbnMtc2VyaWYiIGZvbnQtc2l6ZT0iMTQiIGxlbmd0aEFkanVzdD0ic3BhY2luZyIgdGV4dExlbmd0aD0iODQiIHg9IjE4OCIgeT0iMTc4My4yNjU2Ij5Mb2dpbiBTY3JlZW48L3RleHQ+PC9nPjxnIGNsYXNzPSJwYXJ0aWNpcGFudCBwYXJ0aWNpcGFudC1oZWFkIiBkYXRhLXBhcnRpY2lwYW50PSJTaWduVXAiPjxyZWN0IGZpbGw9IiNFMkUyRjAiIGhlaWdodD0iMjguOTg0NCIgcng9IjIuNSIgcnk9IjIuNSIgc3R5bGU9InN0cm9rZTojMTgxODE4O3N0cm9rZS13aWR0aDowLjU7IiB3aWR0aD0iMTEyIiB4PSIzOTkuNSIgeT0iNTAiLz48dGV4dCBmaWxsPSIjMDAwMDAwIiBmb250LWZhbWlseT0ic2Fucy1zZXJpZiIgZm9udC1zaXplPSIxNCIgbGVuZ3RoQWRqdXN0PSJzcGFjaW5nIiB0ZXh0TGVuZ3RoPSI5OCIgeD0iNDA2LjUiIHk9IjcwLjIzNDQiPlNpZ24gVXAgU2NyZWVuPC90ZXh0PjwvZz48ZyBjbGFzcz0icGFydGljaXBhbnQgcGFydGljaXBhbnQtdGFpbCIgZGF0YS1wYXJ0aWNpcGFudD0iU2lnblVwIj48cmVjdCBmaWxsPSIjRTJFMkYwIiBoZWlnaHQ9IjI4Ljk4NDQiIHJ4PSIyLjUiIHJ5PSIyLjUiIHN0eWxlPSJzdHJva2U6IzE4MTgxODtzdHJva2Utd2lkdGg6MC41OyIgd2lkdGg9IjExMiIgeD0iMzk5LjUiIHk9IjE3NjMuMDMxMyIvPjx0ZXh0IGZpbGw9IiMwMDAwMDAiIGZvbnQtZmFtaWx5PSJzYW5zLXNlcmlmIiBmb250LXNpemU9IjE0IiBsZW5ndGhBZGp1c3Q9InNwYWNpbmciIHRleHRMZW5ndGg9Ijk4IiB4PSI0MDYuNSIgeT0iMTc4My4yNjU2Ij5TaWduIFVwIFNjcmVlbjwvdGV4dD48L2c+PGcgY2xhc3M9InBhcnRpY2lwYW50IHBhcnRpY2lwYW50LWhlYWQiIGRhdGEtcGFydGljaXBhbnQ9IkVtYWlsIj48cmVjdCBmaWxsPSIjRTJFMkYwIiBoZWlnaHQ9IjI4Ljk4NDQiIHJ4PSIyLjUiIHJ5PSIyLjUiIHN0eWxlPSJzdHJva2U6IzE4MTgxODtzdHJva2Utd2lkdGg6MC41OyIgd2lkdGg9IjEwNSIgeD0iNTIxLjUiIHk9IjUwIi8+PHRleHQgZmlsbD0iIzAwMDAwMCIgZm9udC1mYW1pbHk9InNhbnMtc2VyaWYiIGZvbnQtc2l6ZT0iMTQiIGxlbmd0aEFkanVzdD0ic3BhY2luZyIgdGV4dExlbmd0aD0iOTEiIHg9IjUyOC41IiB5PSI3MC4yMzQ0Ij5HbWFpbCAvIEVtYWlsPC90ZXh0PjwvZz48ZyBjbGFzcz0icGFydGljaXBhbnQgcGFydGljaXBhbnQtdGFpbCIgZGF0YS1wYXJ0aWNpcGFudD0iRW1haWwiPjxyZWN0IGZpbGw9IiNFMkUyRjAiIGhlaWdodD0iMjguOTg0NCIgcng9IjIuNSIgcnk9IjIuNSIgc3R5bGU9InN0cm9rZTojMTgxODE4O3N0cm9rZS13aWR0aDowLjU7IiB3aWR0aD0iMTA1IiB4PSI1MjEuNSIgeT0iMTc2My4wMzEzIi8+PHRleHQgZmlsbD0iIzAwMDAwMCIgZm9udC1mYW1pbHk9InNhbnMtc2VyaWYiIGZvbnQtc2l6ZT0iMTQiIGxlbmd0aEFkanVzdD0ic3BhY2luZyIgdGV4dExlbmd0aD0iOTEiIHg9IjUyOC41IiB5PSIxNzgzLjI2NTYiPkdtYWlsIC8gRW1haWw8L3RleHQ+PC9nPjxnIGNsYXNzPSJwYXJ0aWNpcGFudCBwYXJ0aWNpcGFudC1oZWFkIiBkYXRhLXBhcnRpY2lwYW50PSJCcm93c2VyIj48cmVjdCBmaWxsPSIjRTJFMkYwIiBoZWlnaHQ9IjI4Ljk4NDQiIHJ4PSIyLjUiIHJ5PSIyLjUiIHN0eWxlPSJzdHJva2U6IzE4MTgxODtzdHJva2Utd2lkdGg6MC41OyIgd2lkdGg9IjYzIiB4PSI3MDkuNSIgeT0iNTAiLz48dGV4dCBmaWxsPSIjMDAwMDAwIiBmb250LWZhbWlseT0ic2Fucy1zZXJpZiIgZm9udC1zaXplPSIxNCIgbGVuZ3RoQWRqdXN0PSJzcGFjaW5nIiB0ZXh0TGVuZ3RoPSI0OSIgeD0iNzE2LjUiIHk9IjcwLjIzNDQiPkJyb3dzZXI8L3RleHQ+PC9nPjxnIGNsYXNzPSJwYXJ0aWNpcGFudCBwYXJ0aWNpcGFudC10YWlsIiBkYXRhLXBhcnRpY2lwYW50PSJCcm93c2VyIj48cmVjdCBmaWxsPSIjRTJFMkYwIiBoZWlnaHQ9IjI4Ljk4NDQiIHJ4PSIyLjUiIHJ5PSIyLjUiIHN0eWxlPSJzdHJva2U6IzE4MTgxODtzdHJva2Utd2lkdGg6MC41OyIgd2lkdGg9IjYzIiB4PSI3MDkuNSIgeT0iMTc2My4wMzEzIi8+PHRleHQgZmlsbD0iIzAwMDAwMCIgZm9udC1mYW1pbHk9InNhbnMtc2VyaWYiIGZvbnQtc2l6ZT0iMTQiIGxlbmd0aEFkanVzdD0ic3BhY2luZyIgdGV4dExlbmd0aD0iNDkiIHg9IjcxNi41IiB5PSIxNzgzLjI2NTYiPkJyb3dzZXI8L3RleHQ+PC9nPjxnIGNsYXNzPSJwYXJ0aWNpcGFudCBwYXJ0aWNpcGFudC1oZWFkIiBkYXRhLXBhcnRpY2lwYW50PSJDaGVja0VtYWlsIj48cmVjdCBmaWxsPSIjRTJFMkYwIiBoZWlnaHQ9IjI4Ljk4NDQiIHJ4PSIyLjUiIHJ5PSIyLjUiIHN0eWxlPSJzdHJva2U6IzE4MTgxODtzdHJva2Utd2lkdGg6MC41OyIgd2lkdGg9IjE0MCIgeD0iNzgyLjUiIHk9IjUwIi8+PHRleHQgZmlsbD0iIzAwMDAwMCIgZm9udC1mYW1pbHk9InNhbnMtc2VyaWYiIGZvbnQtc2l6ZT0iMTQiIGxlbmd0aEFkanVzdD0ic3BhY2luZyIgdGV4dExlbmd0aD0iMTI2IiB4PSI3ODkuNSIgeT0iNzAuMjM0NCI+Q2hlY2sgRW1haWwgU2NyZWVuPC90ZXh0PjwvZz48ZyBjbGFzcz0icGFydGljaXBhbnQgcGFydGljaXBhbnQtdGFpbCIgZGF0YS1wYXJ0aWNpcGFudD0iQ2hlY2tFbWFpbCI+PHJlY3QgZmlsbD0iI0UyRTJGMCIgaGVpZ2h0PSIyOC45ODQ0IiByeD0iMi41IiByeT0iMi41IiBzdHlsZT0ic3Ryb2tlOiMxODE4MTg7c3Ryb2tlLXdpZHRoOjAuNTsiIHdpZHRoPSIxNDAiIHg9Ijc4Mi41IiB5PSIxNzYzLjAzMTMiLz48dGV4dCBmaWxsPSIjMDAwMDAwIiBmb250LWZhbWlseT0ic2Fucy1zZXJpZiIgZm9udC1zaXplPSIxNCIgbGVuZ3RoQWRqdXN0PSJzcGFjaW5nIiB0ZXh0TGVuZ3RoPSIxMjYiIHg9Ijc4OS41IiB5PSIxNzgzLjI2NTYiPkNoZWNrIEVtYWlsIFNjcmVlbjwvdGV4dD48L2c+PGcgY2xhc3M9InBhcnRpY2lwYW50IHBhcnRpY2lwYW50LWhlYWQiIGRhdGEtcGFydGljaXBhbnQ9IkJhY2tlbmQiPjxyZWN0IGZpbGw9IiNFMkUyRjAiIGhlaWdodD0iMjguOTg0NCIgcng9IjIuNSIgcnk9IjIuNSIgc3R5bGU9InN0cm9rZTojMTgxODE4O3N0cm9rZS13aWR0aDowLjU7IiB3aWR0aD0iMTg5IiB4PSI5NzAuNSIgeT0iNTAiLz48dGV4dCBmaWxsPSIjMDAwMDAwIiBmb250LWZhbWlseT0ic2Fucy1zZXJpZiIgZm9udC1zaXplPSIxNCIgbGVuZ3RoQWRqdXN0PSJzcGFjaW5nIiB0ZXh0TGVuZ3RoPSIxNzUiIHg9Ijk3Ny41IiB5PSI3MC4yMzQ0Ij5CYWNrZW5kIFNlcnZlciAvIEZpcmViYXNlPC90ZXh0PjwvZz48ZyBjbGFzcz0icGFydGljaXBhbnQgcGFydGljaXBhbnQtdGFpbCIgZGF0YS1wYXJ0aWNpcGFudD0iQmFja2VuZCI+PHJlY3QgZmlsbD0iI0UyRTJGMCIgaGVpZ2h0PSIyOC45ODQ0IiByeD0iMi41IiByeT0iMi41IiBzdHlsZT0ic3Ryb2tlOiMxODE4MTg7c3Ryb2tlLXdpZHRoOjAuNTsiIHdpZHRoPSIxODkiIHg9Ijk3MC41IiB5PSIxNzYzLjAzMTMiLz48dGV4dCBmaWxsPSIjMDAwMDAwIiBmb250LWZhbWlseT0ic2Fucy1zZXJpZiIgZm9udC1zaXplPSIxNCIgbGVuZ3RoQWRqdXN0PSJzcGFjaW5nIiB0ZXh0TGVuZ3RoPSIxNzUiIHg9Ijk3Ny41IiB5PSIxNzgzLjI2NTYiPkJhY2tlbmQgU2VydmVyIC8gRmlyZWJhc2U8L3RleHQ+PC9nPjxyZWN0IGZpbGw9IiNFRUVFRUUiIGhlaWdodD0iMyIgc3R5bGU9InN0cm9rZTojRUVFRUVFO3N0cm9rZS13aWR0aDoxOyIgd2lkdGg9IjEyNjkuNSIgeD0iMCIgeT0iMTA5Ljk0MTQiLz48bGluZSBzdHlsZT0ic3Ryb2tlOiMwMDAwMDA7c3Ryb2tlLXdpZHRoOjE7IiB4MT0iMCIgeDI9IjEyNjkuNSIgeTE9IjEwOS45NDE0IiB5Mj0iMTA5Ljk0MTQiLz48bGluZSBzdHlsZT0ic3Ryb2tlOiMwMDAwMDA7c3Ryb2tlLXdpZHRoOjE7IiB4MT0iMCIgeDI9IjEyNjkuNSIgeTE9IjExMi45NDE0IiB5Mj0iMTEyLjk0MTQiLz48cmVjdCBmaWxsPSIjRUVFRUVFIiBoZWlnaHQ9IjIxLjkxNDEiIHN0eWxlPSJzdHJva2U6IzAwMDAwMDtzdHJva2Utd2lkdGg6MjsiIHdpZHRoPSIxMzcuNSIgeD0iNTY2IiB5PSI5OS45ODQ0Ii8+PHRleHQgZmlsbD0iIzAwMDAwMCIgZm9udC1mYW1pbHk9InNhbnMtc2VyaWYiIGZvbnQtc2l6ZT0iMTMiIGZvbnQtd2VpZ2h0PSJib2xkIiBsZW5ndGhBZGp1c3Q9InNwYWNpbmciIHRleHRMZW5ndGg9IjExNyIgeD0iNTcyIiB5PSIxMTYuMjczNCI+VXNlciBMb2dpbiBQcm9jZXNzPC90ZXh0PjxnIGNsYXNzPSJtZXNzYWdlIiBkYXRhLXBhcnRpY2lwYW50LTE9IlVzZXIiIGRhdGEtcGFydGljaXBhbnQtMj0iTG9naW4iPjxwb2x5Z29uIGZpbGw9IiMxODE4MTgiIHBvaW50cz0iMjE4LDE0Ny44MTI1LDIyOCwxNTEuODEyNSwyMTgsMTU1LjgxMjUsMjIyLDE1MS44MTI1IiBzdHlsZT0ic3Ryb2tlOiMxODE4MTg7c3Ryb2tlLXdpZHRoOjE7Ii8+PGxpbmUgc3R5bGU9InN0cm9rZTojMTgxODE4O3N0cm9rZS13aWR0aDoxOyIgeDE9IjM3IiB4Mj0iMjI0IiB5MT0iMTUxLjgxMjUiIHkyPSIxNTEuODEyNSIvPjx0ZXh0IGZpbGw9IiMwMDAwMDAiIGZvbnQtZmFtaWx5PSJzYW5zLXNlcmlmIiBmb250LXNpemU9IjEzIiBsZW5ndGhBZGp1c3Q9InNwYWNpbmciIHRleHRMZW5ndGg9IjUyIiB4PSI0NCIgeT0iMTQ4LjE4NzUiPk9wZW4gQXBwPC90ZXh0PjwvZz48ZyBjbGFzcz0ibWVzc2FnZSIgZGF0YS1wYXJ0aWNpcGFudC0xPSJVc2VyIiBkYXRhLXBhcnRpY2lwYW50LTI9IkxvZ2luIj48cG9seWdvbiBmaWxsPSIjMTgxODE4IiBwb2ludHM9IjIxOCwxNzUuNzI2NiwyMjgsMTc5LjcyNjYsMjE4LDE4My43MjY2LDIyMiwxNzkuNzI2NiIgc3R5bGU9InN0cm9rZTojMTgxODE4O3N0cm9rZS13aWR0aDoxOyIvPjxsaW5lIHN0eWxlPSJzdHJva2U6IzE4MTgxODtzdHJva2Utd2lkdGg6MTsiIHgxPSIzNyIgeDI9IjIyNCIgeTE9IjE3OS43MjY2IiB5Mj0iMTc5LjcyNjYiLz48dGV4dCBmaWxsPSIjMDAwMDAwIiBmb250LWZhbWlseT0ic2Fucy1zZXJpZiIgZm9udC1zaXplPSIxMyIgbGVuZ3RoQWRqdXN0PSJzcGFjaW5nIiB0ZXh0TGVuZ3RoPSIxNTYiIHg9IjQ0IiB5PSIxNzYuMTAxNiI+RW50ZXIgRW1haWwgYW5kIFBhc3N3b3JkPC90ZXh0PjwvZz48ZyBjbGFzcz0ibWVzc2FnZSIgZGF0YS1wYXJ0aWNpcGFudC0xPSJVc2VyIiBkYXRhLXBhcnRpY2lwYW50LTI9IkxvZ2luIj48cG9seWdvbiBmaWxsPSIjMTgxODE4IiBwb2ludHM9IjIxOCwyMDMuNjQwNiwyMjgsMjA3LjY0MDYsMjE4LDIxMS42NDA2LDIyMiwyMDcuNjQwNiIgc3R5bGU9InN0cm9rZTojMTgxODE4O3N0cm9rZS13aWR0aDoxOyIvPjxsaW5lIHN0eWxlPSJzdHJva2U6IzE4MTgxODtzdHJva2Utd2lkdGg6MTsiIHgxPSIzNyIgeDI9IjIyNCIgeTE9IjIwNy42NDA2IiB5Mj0iMjA3LjY0MDYiLz48dGV4dCBmaWxsPSIjMDAwMDAwIiBmb250LWZhbWlseT0ic2Fucy1zZXJpZiIgZm9udC1zaXplPSIxMyIgbGVuZ3RoQWRqdXN0PSJzcGFjaW5nIiB0ZXh0TGVuZ3RoPSI4NC41IiB4PSI0NCIgeT0iMjA0LjAxNTYiPkNsaWNrICJMb2dpbiI8L3RleHQ+PC9nPjxnIGNsYXNzPSJtZXNzYWdlIiBkYXRhLXBhcnRpY2lwYW50LTE9IkxvZ2luIiBkYXRhLXBhcnRpY2lwYW50LTI9IkJhY2tlbmQiPjxwb2x5Z29uIGZpbGw9IiMxODE4MTgiIHBvaW50cz0iMTA1MywyMzEuNTU0NywxMDYzLDIzNS41NTQ3LDEwNTMsMjM5LjU1NDcsMTA1NywyMzUuNTU0NyIgc3R5bGU9InN0cm9rZTojMTgxODE4O3N0cm9rZS13aWR0aDoxOyIvPjxsaW5lIHN0eWxlPSJzdHJva2U6IzE4MTgxODtzdHJva2Utd2lkdGg6MTsiIHgxPSIyMzAiIHgyPSIxMDU5IiB5MT0iMjM1LjU1NDciIHkyPSIyMzUuNTU0NyIvPjx0ZXh0IGZpbGw9IiMwMDAwMDAiIGZvbnQtZmFtaWx5PSJzYW5zLXNlcmlmIiBmb250LXNpemU9IjEzIiBsZW5ndGhBZGp1c3Q9InNwYWNpbmciIHRleHRMZW5ndGg9IjIyNy41IiB4PSIyMzciIHk9IjIzMS45Mjk3Ij5TZW5kIGNyZWRlbnRpYWxzIGZvciBhdXRoZW50aWNhdGlvbjwvdGV4dD48L2c+PGcgY2xhc3M9Im1lc3NhZ2UiIGRhdGEtcGFydGljaXBhbnQtMT0iQmFja2VuZCIgZGF0YS1wYXJ0aWNpcGFudC0yPSJMb2dpbiI+PHBvbHlnb24gZmlsbD0iIzE4MTgxOCIgcG9pbnRzPSIyNDEsMjU5LjQ2ODgsMjMxLDI2My40Njg4LDI0MSwyNjcuNDY4OCwyMzcsMjYzLjQ2ODgiIHN0eWxlPSJzdHJva2U6IzE4MTgxODtzdHJva2Utd2lkdGg6MTsiLz48bGluZSBzdHlsZT0ic3Ryb2tlOiMxODE4MTg7c3Ryb2tlLXdpZHRoOjE7c3Ryb2tlLWRhc2hhcnJheToyLjAsMi4wOyIgeDE9IjIzNSIgeDI9IjEwNjQiIHkxPSIyNjMuNDY4OCIgeTI9IjI2My40Njg4Ii8+PHRleHQgZmlsbD0iIzAwMDAwMCIgZm9udC1mYW1pbHk9InNhbnMtc2VyaWYiIGZvbnQtc2l6ZT0iMTMiIGxlbmd0aEFkanVzdD0ic3BhY2luZyIgdGV4dExlbmd0aD0iMTU2IiB4PSIyNDciIHk9IjI1OS44NDM4Ij5WYWxpZCBjcmVkZW50aWFscz8gJiM4NTk0OyBZZXM8L3RleHQ+PC9nPjxnIGNsYXNzPSJtZXNzYWdlIiBkYXRhLXBhcnRpY2lwYW50LTE9IkxvZ2luIiBkYXRhLXBhcnRpY2lwYW50LTI9IlVzZXIiPjxwb2x5Z29uIGZpbGw9IiMxODE4MTgiIHBvaW50cz0iNDgsMjg3LjM4MjgsMzgsMjkxLjM4MjgsNDgsMjk1LjM4MjgsNDQsMjkxLjM4MjgiIHN0eWxlPSJzdHJva2U6IzE4MTgxODtzdHJva2Utd2lkdGg6MTsiLz48bGluZSBzdHlsZT0ic3Ryb2tlOiMxODE4MTg7c3Ryb2tlLXdpZHRoOjE7IiB4MT0iNDIiIHgyPSIyMjkiIHkxPSIyOTEuMzgyOCIgeTI9IjI5MS4zODI4Ii8+PHRleHQgZmlsbD0iIzAwMDAwMCIgZm9udC1mYW1pbHk9InNhbnMtc2VyaWYiIGZvbnQtc2l6ZT0iMTMiIGxlbmd0aEFkanVzdD0ic3BhY2luZyIgdGV4dExlbmd0aD0iMTQ5LjUiIHg9IjU0IiB5PSIyODcuNzU3OCI+TmF2aWdhdGUgdG8gSG9tZSBTY3JlZW48L3RleHQ+PC9nPjxwYXRoIGQ9Ik0xMCwzMDYuMzgyOCBMNzQuNSwzMDYuMzgyOCBMNzQuNSwzMTIuMjk2OSBMNjQuNSwzMjIuMjk2OSBMMTAsMzIyLjI5NjkgTDEwLDMwNi4zODI4IiBmaWxsPSIjRUVFRUVFIiBzdHlsZT0ic3Ryb2tlOiMwMDAwMDA7c3Ryb2tlLXdpZHRoOjEuNTsiLz48cmVjdCBmaWxsPSJub25lIiBoZWlnaHQ9IjcxLjc0MjIiIHN0eWxlPSJzdHJva2U6IzAwMDAwMDtzdHJva2Utd2lkdGg6MS41OyIgd2lkdGg9IjExNTkuNSIgeD0iMTAiIHk9IjMwNi4zODI4Ii8+PHRleHQgZmlsbD0iIzAwMDAwMCIgZm9udC1mYW1pbHk9InNhbnMtc2VyaWYiIGZvbnQtc2l6ZT0iMTMiIGZvbnQtd2VpZ2h0PSJib2xkIiBsZW5ndGhBZGp1c3Q9InNwYWNpbmciIHRleHRMZW5ndGg9IjE5LjUiIHg9IjI1IiB5PSIzMTkuNjcxOSI+YWx0PC90ZXh0Pjx0ZXh0IGZpbGw9IiMwMDAwMDAiIGZvbnQtZmFtaWx5PSJzYW5zLXNlcmlmIiBmb250LXNpemU9IjExIiBmb250LXdlaWdodD0iYm9sZCIgbGVuZ3RoQWRqdXN0PSJzcGFjaW5nIiB0ZXh0TGVuZ3RoPSIxMTUuNSIgeD0iODkuNSIgeT0iMzE4Ljc4MTMiPltJbnZhbGlkIGNyZWRlbnRpYWxzXTwvdGV4dD48ZyBjbGFzcz0ibWVzc2FnZSIgZGF0YS1wYXJ0aWNpcGFudC0xPSJCYWNrZW5kIiBkYXRhLXBhcnRpY2lwYW50LTI9IkxvZ2luIj48cG9seWdvbiBmaWxsPSIjMTgxODE4IiBwb2ludHM9IjI0MSwzMzguMjEwOSwyMzEsMzQyLjIxMDksMjQxLDM0Ni4yMTA5LDIzNywzNDIuMjEwOSIgc3R5bGU9InN0cm9rZTojMTgxODE4O3N0cm9rZS13aWR0aDoxOyIvPjxsaW5lIHN0eWxlPSJzdHJva2U6IzE4MTgxODtzdHJva2Utd2lkdGg6MTtzdHJva2UtZGFzaGFycmF5OjIuMCwyLjA7IiB4MT0iMjM1IiB4Mj0iMTA2NCIgeTE9IjM0Mi4yMTA5IiB5Mj0iMzQyLjIxMDkiLz48dGV4dCBmaWxsPSIjMDAwMDAwIiBmb250LWZhbWlseT0ic2Fucy1zZXJpZiIgZm9udC1zaXplPSIxMyIgbGVuZ3RoQWRqdXN0PSJzcGFjaW5nIiB0ZXh0TGVuZ3RoPSIyMjEiIHg9IjI0NyIgeT0iMzM4LjU4NTkiPlJldHVybiAiSW52YWxpZCBjcmVkZW50aWFscyIgZXJyb3I8L3RleHQ+PC9nPjxnIGNsYXNzPSJtZXNzYWdlIiBkYXRhLXBhcnRpY2lwYW50LTE9IkxvZ2luIiBkYXRhLXBhcnRpY2lwYW50LTI9IlVzZXIiPjxwb2x5Z29uIGZpbGw9IiMxODE4MTgiIHBvaW50cz0iNDgsMzY2LjEyNSwzOCwzNzAuMTI1LDQ4LDM3NC4xMjUsNDQsMzcwLjEyNSIgc3R5bGU9InN0cm9rZTojMTgxODE4O3N0cm9rZS13aWR0aDoxOyIvPjxsaW5lIHN0eWxlPSJzdHJva2U6IzE4MTgxODtzdHJva2Utd2lkdGg6MTsiIHgxPSI0MiIgeDI9IjIyOSIgeTE9IjM3MC4xMjUiIHkyPSIzNzAuMTI1Ii8+PHRleHQgZmlsbD0iIzAwMDAwMCIgZm9udC1mYW1pbHk9InNhbnMtc2VyaWYiIGZvbnQtc2l6ZT0iMTMiIGxlbmd0aEFkanVzdD0ic3BhY2luZyIgdGV4dExlbmd0aD0iMTE3IiB4PSI1NCIgeT0iMzY2LjUiPlNob3cgZXJyb3IgbWVzc2FnZTwvdGV4dD48L2c+PHJlY3QgZmlsbD0iI0VFRUVFRSIgaGVpZ2h0PSIzIiBzdHlsZT0ic3Ryb2tlOiNFRUVFRUU7c3Ryb2tlLXdpZHRoOjE7IiB3aWR0aD0iMTI2OS41IiB4PSIwIiB5PSI0MDUuMDgyIi8+PGxpbmUgc3R5bGU9InN0cm9rZTojMDAwMDAwO3N0cm9rZS13aWR0aDoxOyIgeDE9IjAiIHgyPSIxMjY5LjUiIHkxPSI0MDUuMDgyIiB5Mj0iNDA1LjA4MiIvPjxsaW5lIHN0eWxlPSJzdHJva2U6IzAwMDAwMDtzdHJva2Utd2lkdGg6MTsiIHgxPSIwIiB4Mj0iMTI2OS41IiB5MT0iNDA4LjA4MiIgeTI9IjQwOC4wODIiLz48cmVjdCBmaWxsPSIjRUVFRUVFIiBoZWlnaHQ9IjIxLjkxNDEiIHN0eWxlPSJzdHJva2U6IzAwMDAwMDtzdHJva2Utd2lkdGg6MjsiIHdpZHRoPSIxNzAiIHg9IjU0OS43NSIgeT0iMzk1LjEyNSIvPjx0ZXh0IGZpbGw9IiMwMDAwMDAiIGZvbnQtZmFtaWx5PSJzYW5zLXNlcmlmIiBmb250LXNpemU9IjEzIiBmb250LXdlaWdodD0iYm9sZCIgbGVuZ3RoQWRqdXN0PSJzcGFjaW5nIiB0ZXh0TGVuZ3RoPSIxNDkuNSIgeD0iNTU1Ljc1IiB5PSI0MTEuNDE0MSI+Rm9yZ290IFBhc3N3b3JkIFByb2Nlc3M8L3RleHQ+PGcgY2xhc3M9Im1lc3NhZ2UiIGRhdGEtcGFydGljaXBhbnQtMT0iVXNlciIgZGF0YS1wYXJ0aWNpcGFudC0yPSJMb2dpbiI+PHBvbHlnb24gZmlsbD0iIzE4MTgxOCIgcG9pbnRzPSIyMTgsNDQyLjk1MzEsMjI4LDQ0Ni45NTMxLDIxOCw0NTAuOTUzMSwyMjIsNDQ2Ljk1MzEiIHN0eWxlPSJzdHJva2U6IzE4MTgxODtzdHJva2Utd2lkdGg6MTsiLz48bGluZSBzdHlsZT0ic3Ryb2tlOiMxODE4MTg7c3Ryb2tlLXdpZHRoOjE7IiB4MT0iMzciIHgyPSIyMjQiIHkxPSI0NDYuOTUzMSIgeTI9IjQ0Ni45NTMxIi8+PHRleHQgZmlsbD0iIzAwMDAwMCIgZm9udC1mYW1pbHk9InNhbnMtc2VyaWYiIGZvbnQtc2l6ZT0iMTMiIGxlbmd0aEFkanVzdD0ic3BhY2luZyIgdGV4dExlbmd0aD0iMTU2IiB4PSI0NCIgeT0iNDQzLjMyODEiPkNsaWNrICJGb3Jnb3QgUGFzc3dvcmQ/IjwvdGV4dD48L2c+PGcgY2xhc3M9Im1lc3NhZ2UiIGRhdGEtcGFydGljaXBhbnQtMT0iTG9naW4iIGRhdGEtcGFydGljaXBhbnQtMj0iQ2hlY2tFbWFpbCI+PHBvbHlnb24gZmlsbD0iIzE4MTgxOCIgcG9pbnRzPSI4NDAuNSw0NzAuODY3Miw4NTAuNSw0NzQuODY3Miw4NDAuNSw0NzguODY3Miw4NDQuNSw0NzQuODY3MiIgc3R5bGU9InN0cm9rZTojMTgxODE4O3N0cm9rZS13aWR0aDoxOyIvPjxsaW5lIHN0eWxlPSJzdHJva2U6IzE4MTgxODtzdHJva2Utd2lkdGg6MTsiIHgxPSIyMzAiIHgyPSI4NDYuNSIgeTE9IjQ3NC44NjcyIiB5Mj0iNDc0Ljg2NzIiLz48dGV4dCBmaWxsPSIjMDAwMDAwIiBmb250LWZhbWlseT0ic2Fucy1zZXJpZiIgZm9udC1zaXplPSIxMyIgbGVuZ3RoQWRqdXN0PSJzcGFjaW5nIiB0ZXh0TGVuZ3RoPSIyMjEiIHg9IjIzNyIgeT0iNDcxLjI0MjIiPk5hdmlnYXRlIHRvIEZvcmdvdCBQYXNzd29yZCBTY3JlZW48L3RleHQ+PC9nPjxnIGNsYXNzPSJtZXNzYWdlIiBkYXRhLXBhcnRpY2lwYW50LTE9IlVzZXIiIGRhdGEtcGFydGljaXBhbnQtMj0iQ2hlY2tFbWFpbCI+PHBvbHlnb24gZmlsbD0iIzE4MTgxOCIgcG9pbnRzPSI4NDAuNSw0OTguNzgxMyw4NTAuNSw1MDIuNzgxMyw4NDAuNSw1MDYuNzgxMyw4NDQuNSw1MDIuNzgxMyIgc3R5bGU9InN0cm9rZTojMTgxODE4O3N0cm9rZS13aWR0aDoxOyIvPjxsaW5lIHN0eWxlPSJzdHJva2U6IzE4MTgxODtzdHJva2Utd2lkdGg6MTsiIHgxPSIzNyIgeDI9Ijg0Ni41IiB5MT0iNTAyLjc4MTMiIHkyPSI1MDIuNzgxMyIvPjx0ZXh0IGZpbGw9IiMwMDAwMDAiIGZvbnQtZmFtaWx5PSJzYW5zLXNlcmlmIiBmb250LXNpemU9IjEzIiBsZW5ndGhBZGp1c3Q9InNwYWNpbmciIHRleHRMZW5ndGg9IjE0MyIgeD0iNDQiIHk9IjQ5OS4xNTYzIj5FbnRlciByZWdpc3RlcmVkIEVtYWlsPC90ZXh0PjwvZz48ZyBjbGFzcz0ibWVzc2FnZSIgZGF0YS1wYXJ0aWNpcGFudC0xPSJVc2VyIiBkYXRhLXBhcnRpY2lwYW50LTI9IkNoZWNrRW1haWwiPjxwb2x5Z29uIGZpbGw9IiMxODE4MTgiIHBvaW50cz0iODQwLjUsNTI2LjY5NTMsODUwLjUsNTMwLjY5NTMsODQwLjUsNTM0LjY5NTMsODQ0LjUsNTMwLjY5NTMiIHN0eWxlPSJzdHJva2U6IzE4MTgxODtzdHJva2Utd2lkdGg6MTsiLz48bGluZSBzdHlsZT0ic3Ryb2tlOiMxODE4MTg7c3Ryb2tlLXdpZHRoOjE7IiB4MT0iMzciIHgyPSI4NDYuNSIgeTE9IjUzMC42OTUzIiB5Mj0iNTMwLjY5NTMiLz48dGV4dCBmaWxsPSIjMDAwMDAwIiBmb250LWZhbWlseT0ic2Fucy1zZXJpZiIgZm9udC1zaXplPSIxMyIgbGVuZ3RoQWRqdXN0PSJzcGFjaW5nIiB0ZXh0TGVuZ3RoPSIxMDQiIHg9IjQ0IiB5PSI1MjcuMDcwMyI+Q2xpY2sgIkNvbnRpbnVlIjwvdGV4dD48L2c+PGcgY2xhc3M9Im1lc3NhZ2UiIGRhdGEtcGFydGljaXBhbnQtMT0iQ2hlY2tFbWFpbCIgZGF0YS1wYXJ0aWNpcGFudC0yPSJCYWNrZW5kIj48cG9seWdvbiBmaWxsPSIjMTgxODE4IiBwb2ludHM9IjEwNTMsNTU0LjYwOTQsMTA2Myw1NTguNjA5NCwxMDUzLDU2Mi42MDk0LDEwNTcsNTU4LjYwOTQiIHN0eWxlPSJzdHJva2U6IzE4MTgxODtzdHJva2Utd2lkdGg6MTsiLz48bGluZSBzdHlsZT0ic3Ryb2tlOiMxODE4MTg7c3Ryb2tlLXdpZHRoOjE7IiB4MT0iODUyLjUiIHgyPSIxMDU5IiB5MT0iNTU4LjYwOTQiIHkyPSI1NTguNjA5NCIvPjx0ZXh0IGZpbGw9IiMwMDAwMDAiIGZvbnQtZmFtaWx5PSJzYW5zLXNlcmlmIiBmb250LXNpemU9IjEzIiBsZW5ndGhBZGp1c3Q9InNwYWNpbmciIHRleHRMZW5ndGg9IjE4OC41IiB4PSI4NTkuNSIgeT0iNTU0Ljk4NDQiPlNlbmQgRW1haWwgZm9yIHBhc3N3b3JkIHJlc2V0PC90ZXh0PjwvZz48ZyBjbGFzcz0ibWVzc2FnZSIgZGF0YS1wYXJ0aWNpcGFudC0xPSJCYWNrZW5kIiBkYXRhLXBhcnRpY2lwYW50LTI9IkNoZWNrRW1haWwiPjxwb2x5Z29uIGZpbGw9IiMxODE4MTgiIHBvaW50cz0iODYzLjUsNTgyLjUyMzQsODUzLjUsNTg2LjUyMzQsODYzLjUsNTkwLjUyMzQsODU5LjUsNTg2LjUyMzQiIHN0eWxlPSJzdHJva2U6IzE4MTgxODtzdHJva2Utd2lkdGg6MTsiLz48bGluZSBzdHlsZT0ic3Ryb2tlOiMxODE4MTg7c3Ryb2tlLXdpZHRoOjE7IiB4MT0iODU3LjUiIHgyPSIxMDY0IiB5MT0iNTg2LjUyMzQiIHkyPSI1ODYuNTIzNCIvPjx0ZXh0IGZpbGw9IiMwMDAwMDAiIGZvbnQtZmFtaWx5PSJzYW5zLXNlcmlmIiBmb250LXNpemU9IjEzIiBsZW5ndGhBZGp1c3Q9InNwYWNpbmciIHRleHRMZW5ndGg9IjEzNi41IiB4PSI4NjkuNSIgeT0iNTgyLjg5ODQiPkNoZWNrIGlmIEVtYWlsIGV4aXN0czwvdGV4dD48L2c+PHBhdGggZD0iTTEwLDYwMS41MjM0IEw3NC41LDYwMS41MjM0IEw3NC41LDYwNy40Mzc1IEw2NC41LDYxNy40Mzc1IEwxMCw2MTcuNDM3NSBMMTAsNjAxLjUyMzQiIGZpbGw9IiNFRUVFRUUiIHN0eWxlPSJzdHJva2U6IzAwMDAwMDtzdHJva2Utd2lkdGg6MS41OyIvPjxyZWN0IGZpbGw9Im5vbmUiIGhlaWdodD0iMTEyLjY1NjMiIHN0eWxlPSJzdHJva2U6IzAwMDAwMDtzdHJva2Utd2lkdGg6MS41OyIgd2lkdGg9IjEyNDkuNSIgeD0iMTAiIHk9IjYwMS41MjM0Ii8+PHRleHQgZmlsbD0iIzAwMDAwMCIgZm9udC1mYW1pbHk9InNhbnMtc2VyaWYiIGZvbnQtc2l6ZT0iMTMiIGZvbnQtd2VpZ2h0PSJib2xkIiBsZW5ndGhBZGp1c3Q9InNwYWNpbmciIHRleHRMZW5ndGg9IjE5LjUiIHg9IjI1IiB5PSI2MTQuODEyNSI+YWx0PC90ZXh0Pjx0ZXh0IGZpbGw9IiMwMDAwMDAiIGZvbnQtZmFtaWx5PSJzYW5zLXNlcmlmIiBmb250LXNpemU9IjExIiBmb250LXdlaWdodD0iYm9sZCIgbGVuZ3RoQWRqdXN0PSJzcGFjaW5nIiB0ZXh0TGVuZ3RoPSI3NyIgeD0iODkuNSIgeT0iNjEzLjkyMTkiPltFbWFpbCBleGlzdHNdPC90ZXh0PjxnIGNsYXNzPSJtZXNzYWdlIiBkYXRhLXBhcnRpY2lwYW50LTE9IkJhY2tlbmQiIGRhdGEtcGFydGljaXBhbnQtMj0iQmFja2VuZCI+PGxpbmUgc3R5bGU9InN0cm9rZTojMTgxODE4O3N0cm9rZS13aWR0aDoxOyIgeDE9IjEwNjUiIHgyPSIxMTA3IiB5MT0iNjM3LjM1MTYiIHkyPSI2MzcuMzUxNiIvPjxsaW5lIHN0eWxlPSJzdHJva2U6IzE4MTgxODtzdHJva2Utd2lkdGg6MTsiIHgxPSIxMTA3IiB4Mj0iMTEwNyIgeTE9IjYzNy4zNTE2IiB5Mj0iNjUwLjM1MTYiLz48bGluZSBzdHlsZT0ic3Ryb2tlOiMxODE4MTg7c3Ryb2tlLXdpZHRoOjE7IiB4MT0iMTA2NiIgeDI9IjExMDciIHkxPSI2NTAuMzUxNiIgeTI9IjY1MC4zNTE2Ii8+PHBvbHlnb24gZmlsbD0iIzE4MTgxOCIgcG9pbnRzPSIxMDc2LDY0Ni4zNTE2LDEwNjYsNjUwLjM1MTYsMTA3Niw2NTQuMzUxNiwxMDcyLDY1MC4zNTE2IiBzdHlsZT0ic3Ryb2tlOiMxODE4MTg7c3Ryb2tlLXdpZHRoOjE7Ii8+PHRleHQgZmlsbD0iIzAwMDAwMCIgZm9udC1mYW1pbHk9InNhbnMtc2VyaWYiIGZvbnQtc2l6ZT0iMTMiIGxlbmd0aEFkanVzdD0ic3BhY2luZyIgdGV4dExlbmd0aD0iMTc1LjUiIHg9IjEwNzIiIHk9IjYzMy43MjY2Ij5HZW5lcmF0ZSByZXNldCBjb2RlIG9yIGxpbms8L3RleHQ+PC9nPjxnIGNsYXNzPSJtZXNzYWdlIiBkYXRhLXBhcnRpY2lwYW50LTE9IkJhY2tlbmQiIGRhdGEtcGFydGljaXBhbnQtMj0iRW1haWwiPjxwb2x5Z29uIGZpbGw9IiMxODE4MTgiIHBvaW50cz0iNTg1LDY3NC4yNjU2LDU3NSw2NzguMjY1Niw1ODUsNjgyLjI2NTYsNTgxLDY3OC4yNjU2IiBzdHlsZT0ic3Ryb2tlOiMxODE4MTg7c3Ryb2tlLXdpZHRoOjE7Ii8+PGxpbmUgc3R5bGU9InN0cm9rZTojMTgxODE4O3N0cm9rZS13aWR0aDoxOyIgeDE9IjU3OSIgeDI9IjEwNjQiIHkxPSI2NzguMjY1NiIgeTI9IjY3OC4yNjU2Ii8+PHRleHQgZmlsbD0iIzAwMDAwMCIgZm9udC1mYW1pbHk9InNhbnMtc2VyaWYiIGZvbnQtc2l6ZT0iMTMiIGxlbmd0aEFkanVzdD0ic3BhY2luZyIgdGV4dExlbmd0aD0iMTA0IiB4PSI1OTEiIHk9IjY3NC42NDA2Ij5TZW5kIHJlc2V0IGVtYWlsPC90ZXh0PjwvZz48ZyBjbGFzcz0ibWVzc2FnZSIgZGF0YS1wYXJ0aWNpcGFudC0xPSJDaGVja0VtYWlsIiBkYXRhLXBhcnRpY2lwYW50LTI9IlVzZXIiPjxwb2x5Z29uIGZpbGw9IiMxODE4MTgiIHBvaW50cz0iNDgsNzAyLjE3OTcsMzgsNzA2LjE3OTcsNDgsNzEwLjE3OTcsNDQsNzA2LjE3OTciIHN0eWxlPSJzdHJva2U6IzE4MTgxODtzdHJva2Utd2lkdGg6MTsiLz48bGluZSBzdHlsZT0ic3Ryb2tlOiMxODE4MTg7c3Ryb2tlLXdpZHRoOjE7IiB4MT0iNDIiIHgyPSI4NTEuNSIgeTE9IjcwNi4xNzk3IiB5Mj0iNzA2LjE3OTciLz48dGV4dCBmaWxsPSIjMDAwMDAwIiBmb250LWZhbWlseT0ic2Fucy1zZXJpZiIgZm9udC1zaXplPSIxMyIgbGVuZ3RoQWRqdXN0PSJzcGFjaW5nIiB0ZXh0TGVuZ3RoPSIzMTguNSIgeD0iNTQiIHk9IjcwMi41NTQ3Ij5TaG93IG1lc3NhZ2UgIldlIHNlbnQgYSByZXNldCBsaW5rIHRvIHlvdXIgZW1haWwiPC90ZXh0PjwvZz48ZyBjbGFzcz0ibWVzc2FnZSIgZGF0YS1wYXJ0aWNpcGFudC0xPSJVc2VyIiBkYXRhLXBhcnRpY2lwYW50LTI9IkNoZWNrRW1haWwiPjxwb2x5Z29uIGZpbGw9IiMxODE4MTgiIHBvaW50cz0iODQwLjUsNzM3LjA5MzgsODUwLjUsNzQxLjA5MzgsODQwLjUsNzQ1LjA5MzgsODQ0LjUsNzQxLjA5MzgiIHN0eWxlPSJzdHJva2U6IzE4MTgxODtzdHJva2Utd2lkdGg6MTsiLz48bGluZSBzdHlsZT0ic3Ryb2tlOiMxODE4MTg7c3Ryb2tlLXdpZHRoOjE7IiB4MT0iMzciIHgyPSI4NDYuNSIgeTE9Ijc0MS4wOTM4IiB5Mj0iNzQxLjA5MzgiLz48dGV4dCBmaWxsPSIjMDAwMDAwIiBmb250LWZhbWlseT0ic2Fucy1zZXJpZiIgZm9udC1zaXplPSIxMyIgbGVuZ3RoQWRqdXN0PSJzcGFjaW5nIiB0ZXh0TGVuZ3RoPSIxMTciIHg9IjQ0IiB5PSI3MzcuNDY4OCI+RW50ZXIgNS1kaWdpdCBjb2RlPC90ZXh0PjwvZz48ZyBjbGFzcz0ibWVzc2FnZSIgZGF0YS1wYXJ0aWNpcGFudC0xPSJVc2VyIiBkYXRhLXBhcnRpY2lwYW50LTI9IkNoZWNrRW1haWwiPjxwb2x5Z29uIGZpbGw9IiMxODE4MTgiIHBvaW50cz0iODQwLjUsNzY1LjAwNzgsODUwLjUsNzY5LjAwNzgsODQwLjUsNzczLjAwNzgsODQ0LjUsNzY5LjAwNzgiIHN0eWxlPSJzdHJva2U6IzE4MTgxODtzdHJva2Utd2lkdGg6MTsiLz48bGluZSBzdHlsZT0ic3Ryb2tlOiMxODE4MTg7c3Ryb2tlLXdpZHRoOjE7IiB4MT0iMzciIHgyPSI4NDYuNSIgeTE9Ijc2OS4wMDc4IiB5Mj0iNzY5LjAwNzgiLz48dGV4dCBmaWxsPSIjMDAwMDAwIiBmb250LWZhbWlseT0ic2Fucy1zZXJpZiIgZm9udC1zaXplPSIxMyIgbGVuZ3RoQWRqdXN0PSJzcGFjaW5nIiB0ZXh0TGVuZ3RoPSI5MSIgeD0iNDQiIHk9Ijc2NS4zODI4Ij5DbGljayAiVmVyaWZ5IjwvdGV4dD48L2c+PGcgY2xhc3M9Im1lc3NhZ2UiIGRhdGEtcGFydGljaXBhbnQtMT0iQ2hlY2tFbWFpbCIgZGF0YS1wYXJ0aWNpcGFudC0yPSJCYWNrZW5kIj48cG9seWdvbiBmaWxsPSIjMTgxODE4IiBwb2ludHM9IjEwNTMsNzkyLjkyMTksMTA2Myw3OTYuOTIxOSwxMDUzLDgwMC45MjE5LDEwNTcsNzk2LjkyMTkiIHN0eWxlPSJzdHJva2U6IzE4MTgxODtzdHJva2Utd2lkdGg6MTsiLz48bGluZSBzdHlsZT0ic3Ryb2tlOiMxODE4MTg7c3Ryb2tlLXdpZHRoOjE7IiB4MT0iODUyLjUiIHgyPSIxMDU5IiB5MT0iNzk2LjkyMTkiIHkyPSI3OTYuOTIxOSIvPjx0ZXh0IGZpbGw9IiMwMDAwMDAiIGZvbnQtZmFtaWx5PSJzYW5zLXNlcmlmIiBmb250LXNpemU9IjEzIiBsZW5ndGhBZGp1c3Q9InNwYWNpbmciIHRleHRMZW5ndGg9IjE2OSIgeD0iODU5LjUiIHk9Ijc5My4yOTY5Ij5TZW5kIGNvZGUgZm9yIHZlcmlmaWNhdGlvbjwvdGV4dD48L2c+PGcgY2xhc3M9Im1lc3NhZ2UiIGRhdGEtcGFydGljaXBhbnQtMT0iQmFja2VuZCIgZGF0YS1wYXJ0aWNpcGFudC0yPSJCYWNrZW5kIj48bGluZSBzdHlsZT0ic3Ryb2tlOiMxODE4MTg7c3Ryb2tlLXdpZHRoOjE7IiB4MT0iMTA2NSIgeDI9IjExMDciIHkxPSI4MjQuODM1OSIgeTI9IjgyNC44MzU5Ii8+PGxpbmUgc3R5bGU9InN0cm9rZTojMTgxODE4O3N0cm9rZS13aWR0aDoxOyIgeDE9IjExMDciIHgyPSIxMTA3IiB5MT0iODI0LjgzNTkiIHkyPSI4MzcuODM1OSIvPjxsaW5lIHN0eWxlPSJzdHJva2U6IzE4MTgxODtzdHJva2Utd2lkdGg6MTsiIHgxPSIxMDY2IiB4Mj0iMTEwNyIgeTE9IjgzNy44MzU5IiB5Mj0iODM3LjgzNTkiLz48cG9seWdvbiBmaWxsPSIjMTgxODE4IiBwb2ludHM9IjEwNzYsODMzLjgzNTksMTA2Niw4MzcuODM1OSwxMDc2LDg0MS44MzU5LDEwNzIsODM3LjgzNTkiIHN0eWxlPSJzdHJva2U6IzE4MTgxODtzdHJva2Utd2lkdGg6MTsiLz48dGV4dCBmaWxsPSIjMDAwMDAwIiBmb250LWZhbWlseT0ic2Fucy1zZXJpZiIgZm9udC1zaXplPSIxMyIgbGVuZ3RoQWRqdXN0PSJzcGFjaW5nIiB0ZXh0TGVuZ3RoPSI4NC41IiB4PSIxMDcyIiB5PSI4MjEuMjEwOSI+VmFsaWRhdGUgY29kZTwvdGV4dD48L2c+PHBhdGggZD0iTTEwLDg1Mi44MzU5IEw3NC41LDg1Mi44MzU5IEw3NC41LDg1OC43NSBMNjQuNSw4NjguNzUgTDEwLDg2OC43NSBMMTAsODUyLjgzNTkiIGZpbGw9IiNFRUVFRUUiIHN0eWxlPSJzdHJva2U6IzAwMDAwMDtzdHJva2Utd2lkdGg6MS41OyIvPjxyZWN0IGZpbGw9Im5vbmUiIGhlaWdodD0iMTQxLjM0MzgiIHN0eWxlPSJzdHJva2U6IzAwMDAwMDtzdHJva2Utd2lkdGg6MS41OyIgd2lkdGg9IjExNTkuNSIgeD0iMTAiIHk9Ijg1Mi44MzU5Ii8+PHRleHQgZmlsbD0iIzAwMDAwMCIgZm9udC1mYW1pbHk9InNhbnMtc2VyaWYiIGZvbnQtc2l6ZT0iMTMiIGZvbnQtd2VpZ2h0PSJib2xkIiBsZW5ndGhBZGp1c3Q9InNwYWNpbmciIHRleHRMZW5ndGg9IjE5LjUiIHg9IjI1IiB5PSI4NjYuMTI1Ij5hbHQ8L3RleHQ+PHRleHQgZmlsbD0iIzAwMDAwMCIgZm9udC1mYW1pbHk9InNhbnMtc2VyaWYiIGZvbnQtc2l6ZT0iMTEiIGZvbnQtd2VpZ2h0PSJib2xkIiBsZW5ndGhBZGp1c3Q9InNwYWNpbmciIHRleHRMZW5ndGg9IjgyLjUiIHg9Ijg5LjUiIHk9Ijg2NS4yMzQ0Ij5bQ29kZSBpcyB2YWxpZF08L3RleHQ+PGcgY2xhc3M9Im1lc3NhZ2UiIGRhdGEtcGFydGljaXBhbnQtMT0iQmFja2VuZCIgZGF0YS1wYXJ0aWNpcGFudC0yPSJDaGVja0VtYWlsIj48cG9seWdvbiBmaWxsPSIjMTgxODE4IiBwb2ludHM9Ijg2My41LDg4NC42NjQxLDg1My41LDg4OC42NjQxLDg2My41LDg5Mi42NjQxLDg1OS41LDg4OC42NjQxIiBzdHlsZT0ic3Ryb2tlOiMxODE4MTg7c3Ryb2tlLXdpZHRoOjE7Ii8+PGxpbmUgc3R5bGU9InN0cm9rZTojMTgxODE4O3N0cm9rZS13aWR0aDoxO3N0cm9rZS1kYXNoYXJyYXk6Mi4wLDIuMDsiIHgxPSI4NTcuNSIgeDI9IjEwNjQiIHkxPSI4ODguNjY0MSIgeTI9Ijg4OC42NjQxIi8+PHRleHQgZmlsbD0iIzAwMDAwMCIgZm9udC1mYW1pbHk9InNhbnMtc2VyaWYiIGZvbnQtc2l6ZT0iMTMiIGxlbmd0aEFkanVzdD0ic3BhY2luZyIgdGV4dExlbmd0aD0iODQuNSIgeD0iODY5LjUiIHk9Ijg4NS4wMzkxIj5Db2RlIHZlcmlmaWVkPC90ZXh0PjwvZz48ZyBjbGFzcz0ibWVzc2FnZSIgZGF0YS1wYXJ0aWNpcGFudC0xPSJDaGVja0VtYWlsIiBkYXRhLXBhcnRpY2lwYW50LTI9IlVzZXIiPjxwb2x5Z29uIGZpbGw9IiMxODE4MTgiIHBvaW50cz0iNDgsOTEyLjU3ODEsMzgsOTE2LjU3ODEsNDgsOTIwLjU3ODEsNDQsOTE2LjU3ODEiIHN0eWxlPSJzdHJva2U6IzE4MTgxODtzdHJva2Utd2lkdGg6MTsiLz48bGluZSBzdHlsZT0ic3Ryb2tlOiMxODE4MTg7c3Ryb2tlLXdpZHRoOjE7IiB4MT0iNDIiIHgyPSI4NTEuNSIgeTE9IjkxNi41NzgxIiB5Mj0iOTE2LjU3ODEiLz48dGV4dCBmaWxsPSIjMDAwMDAwIiBmb250LWZhbWlseT0ic2Fucy1zZXJpZiIgZm9udC1zaXplPSIxMyIgbGVuZ3RoQWRqdXN0PSJzcGFjaW5nIiB0ZXh0TGVuZ3RoPSIyNDAuNSIgeD0iNTQiIHk9IjkxMi45NTMxIj5OYXZpZ2F0ZSB0byAiU2V0IE5ldyBQYXNzd29yZCIgc2NyZWVuPC90ZXh0PjwvZz48bGluZSBzdHlsZT0ic3Ryb2tlOiMwMDAwMDA7c3Ryb2tlLXdpZHRoOjE7c3Ryb2tlLWRhc2hhcnJheToyLjAsMi4wOyIgeDE9IjEwIiB4Mj0iMTE2OS41IiB5MT0iOTI1LjU3ODEiIHkyPSI5MjUuNTc4MSIvPjx0ZXh0IGZpbGw9IiMwMDAwMDAiIGZvbnQtZmFtaWx5PSJzYW5zLXNlcmlmIiBmb250LXNpemU9IjExIiBmb250LXdlaWdodD0iYm9sZCIgbGVuZ3RoQWRqdXN0PSJzcGFjaW5nIiB0ZXh0TGVuZ3RoPSIxNTQiIHg9IjE1IiB5PSI5MzUuOTc2NiI+W0NvZGUgaXMgaW52YWxpZCBvciBleHBpcmVkXTwvdGV4dD48ZyBjbGFzcz0ibWVzc2FnZSIgZGF0YS1wYXJ0aWNpcGFudC0xPSJCYWNrZW5kIiBkYXRhLXBhcnRpY2lwYW50LTI9IkNoZWNrRW1haWwiPjxwb2x5Z29uIGZpbGw9IiMxODE4MTgiIHBvaW50cz0iODYzLjUsOTU0LjI2NTYsODUzLjUsOTU4LjI2NTYsODYzLjUsOTYyLjI2NTYsODU5LjUsOTU4LjI2NTYiIHN0eWxlPSJzdHJva2U6IzE4MTgxODtzdHJva2Utd2lkdGg6MTsiLz48bGluZSBzdHlsZT0ic3Ryb2tlOiMxODE4MTg7c3Ryb2tlLXdpZHRoOjE7c3Ryb2tlLWRhc2hhcnJheToyLjAsMi4wOyIgeDE9Ijg1Ny41IiB4Mj0iMTA2NCIgeTE9Ijk1OC4yNjU2IiB5Mj0iOTU4LjI2NTYiLz48dGV4dCBmaWxsPSIjMDAwMDAwIiBmb250LWZhbWlseT0ic2Fucy1zZXJpZiIgZm9udC1zaXplPSIxMyIgbGVuZ3RoQWRqdXN0PSJzcGFjaW5nIiB0ZXh0TGVuZ3RoPSI3OCIgeD0iODY5LjUiIHk9Ijk1NC42NDA2Ij5SZXR1cm4gZXJyb3I8L3RleHQ+PC9nPjxnIGNsYXNzPSJtZXNzYWdlIiBkYXRhLXBhcnRpY2lwYW50LTE9IkNoZWNrRW1haWwiIGRhdGEtcGFydGljaXBhbnQtMj0iVXNlciI+PHBvbHlnb24gZmlsbD0iIzE4MTgxOCIgcG9pbnRzPSI0OCw5ODIuMTc5NywzOCw5ODYuMTc5Nyw0OCw5OTAuMTc5Nyw0NCw5ODYuMTc5NyIgc3R5bGU9InN0cm9rZTojMTgxODE4O3N0cm9rZS13aWR0aDoxOyIvPjxsaW5lIHN0eWxlPSJzdHJva2U6IzE4MTgxODtzdHJva2Utd2lkdGg6MTsiIHgxPSI0MiIgeDI9Ijg1MS41IiB5MT0iOTg2LjE3OTciIHkyPSI5ODYuMTc5NyIvPjx0ZXh0IGZpbGw9IiMwMDAwMDAiIGZvbnQtZmFtaWx5PSJzYW5zLXNlcmlmIiBmb250LXNpemU9IjEzIiBsZW5ndGhBZGp1c3Q9InNwYWNpbmciIHRleHRMZW5ndGg9IjI0NyIgeD0iNTQiIHk9Ijk4Mi41NTQ3Ij5TaG93ICJJbnZhbGlkIG9yIGV4cGlyZWQgY29kZSIgbWVzc2FnZTwvdGV4dD48L2c+PGcgY2xhc3M9Im1lc3NhZ2UiIGRhdGEtcGFydGljaXBhbnQtMT0iVXNlciIgZGF0YS1wYXJ0aWNpcGFudC0yPSJDaGVja0VtYWlsIj48cG9seWdvbiBmaWxsPSIjMTgxODE4IiBwb2ludHM9Ijg0MC41LDEwMTcuMDkzOCw4NTAuNSwxMDIxLjA5MzgsODQwLjUsMTAyNS4wOTM4LDg0NC41LDEwMjEuMDkzOCIgc3R5bGU9InN0cm9rZTojMTgxODE4O3N0cm9rZS13aWR0aDoxOyIvPjxsaW5lIHN0eWxlPSJzdHJva2U6IzE4MTgxODtzdHJva2Utd2lkdGg6MTsiIHgxPSIzNyIgeDI9Ijg0Ni41IiB5MT0iMTAyMS4wOTM4IiB5Mj0iMTAyMS4wOTM4Ii8+PHRleHQgZmlsbD0iIzAwMDAwMCIgZm9udC1mYW1pbHk9InNhbnMtc2VyaWYiIGZvbnQtc2l6ZT0iMTMiIGxlbmd0aEFkanVzdD0ic3BhY2luZyIgdGV4dExlbmd0aD0iMTMwIiB4PSI0NCIgeT0iMTAxNy40Njg4Ij5DbGljayAiUmVzZW5kIEVtYWlsIjwvdGV4dD48L2c+PGcgY2xhc3M9Im1lc3NhZ2UiIGRhdGEtcGFydGljaXBhbnQtMT0iQ2hlY2tFbWFpbCIgZGF0YS1wYXJ0aWNpcGFudC0yPSJCYWNrZW5kIj48cG9seWdvbiBmaWxsPSIjMTgxODE4IiBwb2ludHM9IjEwNTMsMTA0NS4wMDc4LDEwNjMsMTA0OS4wMDc4LDEwNTMsMTA1My4wMDc4LDEwNTcsMTA0OS4wMDc4IiBzdHlsZT0ic3Ryb2tlOiMxODE4MTg7c3Ryb2tlLXdpZHRoOjE7Ii8+PGxpbmUgc3R5bGU9InN0cm9rZTojMTgxODE4O3N0cm9rZS13aWR0aDoxOyIgeDE9Ijg1Mi41IiB4Mj0iMTA1OSIgeTE9IjEwNDkuMDA3OCIgeTI9IjEwNDkuMDA3OCIvPjx0ZXh0IGZpbGw9IiMwMDAwMDAiIGZvbnQtZmFtaWx5PSJzYW5zLXNlcmlmIiBmb250LXNpemU9IjEzIiBsZW5ndGhBZGp1c3Q9InNwYWNpbmciIHRleHRMZW5ndGg9IjE4OC41IiB4PSI4NTkuNSIgeT0iMTA0NS4zODI4Ij5SZXF1ZXN0IHRvIHJlc2VuZCByZXNldCBlbWFpbDwvdGV4dD48L2c+PGcgY2xhc3M9Im1lc3NhZ2UiIGRhdGEtcGFydGljaXBhbnQtMT0iQmFja2VuZCIgZGF0YS1wYXJ0aWNpcGFudC0yPSJFbWFpbCI+PHBvbHlnb24gZmlsbD0iIzE4MTgxOCIgcG9pbnRzPSI1ODUsMTA3Mi45MjE5LDU3NSwxMDc2LjkyMTksNTg1LDEwODAuOTIxOSw1ODEsMTA3Ni45MjE5IiBzdHlsZT0ic3Ryb2tlOiMxODE4MTg7c3Ryb2tlLXdpZHRoOjE7Ii8+PGxpbmUgc3R5bGU9InN0cm9rZTojMTgxODE4O3N0cm9rZS13aWR0aDoxOyIgeDE9IjU3OSIgeDI9IjEwNjQiIHkxPSIxMDc2LjkyMTkiIHkyPSIxMDc2LjkyMTkiLz48dGV4dCBmaWxsPSIjMDAwMDAwIiBmb250LWZhbWlseT0ic2Fucy1zZXJpZiIgZm9udC1zaXplPSIxMyIgbGVuZ3RoQWRqdXN0PSJzcGFjaW5nIiB0ZXh0TGVuZ3RoPSI3OCIgeD0iNTkxIiB5PSIxMDczLjI5NjkiPlJlc2VuZCBlbWFpbDwvdGV4dD48L2c+PGcgY2xhc3M9Im1lc3NhZ2UiIGRhdGEtcGFydGljaXBhbnQtMT0iQ2hlY2tFbWFpbCIgZGF0YS1wYXJ0aWNpcGFudC0yPSJVc2VyIj48cG9seWdvbiBmaWxsPSIjMTgxODE4IiBwb2ludHM9IjQ4LDExMDAuODM1OSwzOCwxMTA0LjgzNTksNDgsMTEwOC44MzU5LDQ0LDExMDQuODM1OSIgc3R5bGU9InN0cm9rZTojMTgxODE4O3N0cm9rZS13aWR0aDoxOyIvPjxsaW5lIHN0eWxlPSJzdHJva2U6IzE4MTgxODtzdHJva2Utd2lkdGg6MTsiIHgxPSI0MiIgeDI9Ijg1MS41IiB5MT0iMTEwNC44MzU5IiB5Mj0iMTEwNC44MzU5Ii8+PHRleHQgZmlsbD0iIzAwMDAwMCIgZm9udC1mYW1pbHk9InNhbnMtc2VyaWYiIGZvbnQtc2l6ZT0iMTMiIGxlbmd0aEFkanVzdD0ic3BhY2luZyIgdGV4dExlbmd0aD0iMTc1LjUiIHg9IjU0IiB5PSIxMTAxLjIxMDkiPlNob3cgIkVtYWlsIHJlc2VudCIgbWVzc2FnZTwvdGV4dD48L2c+PHJlY3QgZmlsbD0iI0VFRUVFRSIgaGVpZ2h0PSIzIiBzdHlsZT0ic3Ryb2tlOiNFRUVFRUU7c3Ryb2tlLXdpZHRoOjE7IiB3aWR0aD0iMTI2OS41IiB4PSIwIiB5PSIxMTMyLjc5MyIvPjxsaW5lIHN0eWxlPSJzdHJva2U6IzAwMDAwMDtzdHJva2Utd2lkdGg6MTsiIHgxPSIwIiB4Mj0iMTI2OS41IiB5MT0iMTEzMi43OTMiIHkyPSIxMTMyLjc5MyIvPjxsaW5lIHN0eWxlPSJzdHJva2U6IzAwMDAwMDtzdHJva2Utd2lkdGg6MTsiIHgxPSIwIiB4Mj0iMTI2OS41IiB5MT0iMTEzNS43OTMiIHkyPSIxMTM1Ljc5MyIvPjxyZWN0IGZpbGw9IiNFRUVFRUUiIGhlaWdodD0iMjEuOTE0MSIgc3R5bGU9InN0cm9rZTojMDAwMDAwO3N0cm9rZS13aWR0aDoyOyIgd2lkdGg9IjExOCIgeD0iNTc1Ljc1IiB5PSIxMTIyLjgzNTkiLz48dGV4dCBmaWxsPSIjMDAwMDAwIiBmb250LWZhbWlseT0ic2Fucy1zZXJpZiIgZm9udC1zaXplPSIxMyIgZm9udC13ZWlnaHQ9ImJvbGQiIGxlbmd0aEFkanVzdD0ic3BhY2luZyIgdGV4dExlbmd0aD0iOTcuNSIgeD0iNTgxLjc1IiB5PSIxMTM5LjEyNSI+U2lnbiBVcCBQcm9jZXNzPC90ZXh0PjxnIGNsYXNzPSJtZXNzYWdlIiBkYXRhLXBhcnRpY2lwYW50LTE9IlVzZXIiIGRhdGEtcGFydGljaXBhbnQtMj0iTG9naW4iPjxwb2x5Z29uIGZpbGw9IiMxODE4MTgiIHBvaW50cz0iMjE4LDExNzAuNjY0MSwyMjgsMTE3NC42NjQxLDIxOCwxMTc4LjY2NDEsMjIyLDExNzQuNjY0MSIgc3R5bGU9InN0cm9rZTojMTgxODE4O3N0cm9rZS13aWR0aDoxOyIvPjxsaW5lIHN0eWxlPSJzdHJva2U6IzE4MTgxODtzdHJva2Utd2lkdGg6MTsiIHgxPSIzNyIgeDI9IjIyNCIgeTE9IjExNzQuNjY0MSIgeTI9IjExNzQuNjY0MSIvPjx0ZXh0IGZpbGw9IiMwMDAwMDAiIGZvbnQtZmFtaWx5PSJzYW5zLXNlcmlmIiBmb250LXNpemU9IjEzIiBsZW5ndGhBZGp1c3Q9InNwYWNpbmciIHRleHRMZW5ndGg9Ijk3LjUiIHg9IjQ0IiB5PSIxMTcxLjAzOTEiPkNsaWNrICJTaWduIHVwIjwvdGV4dD48L2c+PGcgY2xhc3M9Im1lc3NhZ2UiIGRhdGEtcGFydGljaXBhbnQtMT0iTG9naW4iIGRhdGEtcGFydGljaXBhbnQtMj0iU2lnblVwIj48cG9seWdvbiBmaWxsPSIjMTgxODE4IiBwb2ludHM9IjQ0My41LDExOTguNTc4MSw0NTMuNSwxMjAyLjU3ODEsNDQzLjUsMTIwNi41NzgxLDQ0Ny41LDEyMDIuNTc4MSIgc3R5bGU9InN0cm9rZTojMTgxODE4O3N0cm9rZS13aWR0aDoxOyIvPjxsaW5lIHN0eWxlPSJzdHJva2U6IzE4MTgxODtzdHJva2Utd2lkdGg6MTsiIHgxPSIyMzAiIHgyPSI0NDkuNSIgeTE9IjEyMDIuNTc4MSIgeTI9IjEyMDIuNTc4MSIvPjx0ZXh0IGZpbGw9IiMwMDAwMDAiIGZvbnQtZmFtaWx5PSJzYW5zLXNlcmlmIiBmb250LXNpemU9IjEzIiBsZW5ndGhBZGp1c3Q9InNwYWNpbmciIHRleHRMZW5ndGg9IjIwMS41IiB4PSIyMzciIHk9IjExOTguOTUzMSI+TmF2aWdhdGUgdG8gUmVnaXN0cmF0aW9uIFNjcmVlbjwvdGV4dD48L2c+PGcgY2xhc3M9Im1lc3NhZ2UiIGRhdGEtcGFydGljaXBhbnQtMT0iVXNlciIgZGF0YS1wYXJ0aWNpcGFudC0yPSJTaWduVXAiPjxwb2x5Z29uIGZpbGw9IiMxODE4MTgiIHBvaW50cz0iNDQzLjUsMTIyNi40OTIyLDQ1My41LDEyMzAuNDkyMiw0NDMuNSwxMjM0LjQ5MjIsNDQ3LjUsMTIzMC40OTIyIiBzdHlsZT0ic3Ryb2tlOiMxODE4MTg7c3Ryb2tlLXdpZHRoOjE7Ii8+PGxpbmUgc3R5bGU9InN0cm9rZTojMTgxODE4O3N0cm9rZS13aWR0aDoxOyIgeDE9IjM3IiB4Mj0iNDQ5LjUiIHkxPSIxMjMwLjQ5MjIiIHkyPSIxMjMwLjQ5MjIiLz48dGV4dCBmaWxsPSIjMDAwMDAwIiBmb250LWZhbWlseT0ic2Fucy1zZXJpZiIgZm9udC1zaXplPSIxMyIgbGVuZ3RoQWRqdXN0PSJzcGFjaW5nIiB0ZXh0TGVuZ3RoPSIyNTMuNSIgeD0iNDQiIHk9IjEyMjYuODY3MiI+RW50ZXIgRW1haWwsIFBhc3N3b3JkLCBDb25maXJtIFBhc3N3b3JkPC90ZXh0PjwvZz48ZyBjbGFzcz0ibWVzc2FnZSIgZGF0YS1wYXJ0aWNpcGFudC0xPSJVc2VyIiBkYXRhLXBhcnRpY2lwYW50LTI9IlNpZ25VcCI+PHBvbHlnb24gZmlsbD0iIzE4MTgxOCIgcG9pbnRzPSI0NDMuNSwxMjU0LjQwNjMsNDUzLjUsMTI1OC40MDYzLDQ0My41LDEyNjIuNDA2Myw0NDcuNSwxMjU4LjQwNjMiIHN0eWxlPSJzdHJva2U6IzE4MTgxODtzdHJva2Utd2lkdGg6MTsiLz48bGluZSBzdHlsZT0ic3Ryb2tlOiMxODE4MTg7c3Ryb2tlLXdpZHRoOjE7IiB4MT0iMzciIHgyPSI0NDkuNSIgeTE9IjEyNTguNDA2MyIgeTI9IjEyNTguNDA2MyIvPjx0ZXh0IGZpbGw9IiMwMDAwMDAiIGZvbnQtZmFtaWx5PSJzYW5zLXNlcmlmIiBmb250LXNpemU9IjEzIiBsZW5ndGhBZGp1c3Q9InNwYWNpbmciIHRleHRMZW5ndGg9Ijk3LjUiIHg9IjQ0IiB5PSIxMjU0Ljc4MTMiPkNsaWNrICJTaWduIFVwIjwvdGV4dD48L2c+PGcgY2xhc3M9Im1lc3NhZ2UiIGRhdGEtcGFydGljaXBhbnQtMT0iU2lnblVwIiBkYXRhLXBhcnRpY2lwYW50LTI9IkJhY2tlbmQiPjxwb2x5Z29uIGZpbGw9IiMxODE4MTgiIHBvaW50cz0iMTA1MywxMjgyLjMyMDMsMTA2MywxMjg2LjMyMDMsMTA1MywxMjkwLjMyMDMsMTA1NywxMjg2LjMyMDMiIHN0eWxlPSJzdHJva2U6IzE4MTgxODtzdHJva2Utd2lkdGg6MTsiLz48bGluZSBzdHlsZT0ic3Ryb2tlOiMxODE4MTg7c3Ryb2tlLXdpZHRoOjE7IiB4MT0iNDU1LjUiIHgyPSIxMDU5IiB5MT0iMTI4Ni4zMjAzIiB5Mj0iMTI4Ni4zMjAzIi8+PHRleHQgZmlsbD0iIzAwMDAwMCIgZm9udC1mYW1pbHk9InNhbnMtc2VyaWYiIGZvbnQtc2l6ZT0iMTMiIGxlbmd0aEFkanVzdD0ic3BhY2luZyIgdGV4dExlbmd0aD0iMjA4IiB4PSI0NjIuNSIgeT0iMTI4Mi42OTUzIj5TZW5kIHVzZXIgZGF0YSB0byBjcmVhdGUgYWNjb3VudDwvdGV4dD48L2c+PGcgY2xhc3M9Im1lc3NhZ2UiIGRhdGEtcGFydGljaXBhbnQtMT0iQmFja2VuZCIgZGF0YS1wYXJ0aWNpcGFudC0yPSJCYWNrZW5kIj48bGluZSBzdHlsZT0ic3Ryb2tlOiMxODE4MTg7c3Ryb2tlLXdpZHRoOjE7IiB4MT0iMTA2NSIgeDI9IjExMDciIHkxPSIxMzE0LjIzNDQiIHkyPSIxMzE0LjIzNDQiLz48bGluZSBzdHlsZT0ic3Ryb2tlOiMxODE4MTg7c3Ryb2tlLXdpZHRoOjE7IiB4MT0iMTEwNyIgeDI9IjExMDciIHkxPSIxMzE0LjIzNDQiIHkyPSIxMzI3LjIzNDQiLz48bGluZSBzdHlsZT0ic3Ryb2tlOiMxODE4MTg7c3Ryb2tlLXdpZHRoOjE7IiB4MT0iMTA2NiIgeDI9IjExMDciIHkxPSIxMzI3LjIzNDQiIHkyPSIxMzI3LjIzNDQiLz48cG9seWdvbiBmaWxsPSIjMTgxODE4IiBwb2ludHM9IjEwNzYsMTMyMy4yMzQ0LDEwNjYsMTMyNy4yMzQ0LDEwNzYsMTMzMS4yMzQ0LDEwNzIsMTMyNy4yMzQ0IiBzdHlsZT0ic3Ryb2tlOiMxODE4MTg7c3Ryb2tlLXdpZHRoOjE7Ii8+PHRleHQgZmlsbD0iIzAwMDAwMCIgZm9udC1mYW1pbHk9InNhbnMtc2VyaWYiIGZvbnQtc2l6ZT0iMTMiIGxlbmd0aEFkanVzdD0ic3BhY2luZyIgdGV4dExlbmd0aD0iMTY5IiB4PSIxMDcyIiB5PSIxMzEwLjYwOTQiPkNyZWF0ZSBhY2NvdW50IGluIEZpcmViYXNlPC90ZXh0PjwvZz48ZyBjbGFzcz0ibWVzc2FnZSIgZGF0YS1wYXJ0aWNpcGFudC0xPSJCYWNrZW5kIiBkYXRhLXBhcnRpY2lwYW50LTI9IkVtYWlsIj48cG9seWdvbiBmaWxsPSIjMTgxODE4IiBwb2ludHM9IjU4NSwxMzUxLjE0ODQsNTc1LDEzNTUuMTQ4NCw1ODUsMTM1OS4xNDg0LDU4MSwxMzU1LjE0ODQiIHN0eWxlPSJzdHJva2U6IzE4MTgxODtzdHJva2Utd2lkdGg6MTsiLz48bGluZSBzdHlsZT0ic3Ryb2tlOiMxODE4MTg7c3Ryb2tlLXdpZHRoOjE7IiB4MT0iNTc5IiB4Mj0iMTA2NCIgeTE9IjEzNTUuMTQ4NCIgeTI9IjEzNTUuMTQ4NCIvPjx0ZXh0IGZpbGw9IiMwMDAwMDAiIGZvbnQtZmFtaWx5PSJzYW5zLXNlcmlmIiBmb250LXNpemU9IjEzIiBsZW5ndGhBZGp1c3Q9InNwYWNpbmciIHRleHRMZW5ndGg9IjIxNC41IiB4PSI1OTEiIHk9IjEzNTEuNTIzNCI+U2VuZCB2ZXJpZmljYXRpb24gZW1haWwgd2l0aCBsaW5rPC90ZXh0PjwvZz48cmVjdCBmaWxsPSIjRUVFRUVFIiBoZWlnaHQ9IjMiIHN0eWxlPSJzdHJva2U6I0VFRUVFRTtzdHJva2Utd2lkdGg6MTsiIHdpZHRoPSIxMjY5LjUiIHg9IjAiIHk9IjEzODMuMTA1NSIvPjxsaW5lIHN0eWxlPSJzdHJva2U6IzAwMDAwMDtzdHJva2Utd2lkdGg6MTsiIHgxPSIwIiB4Mj0iMTI2OS41IiB5MT0iMTM4My4xMDU1IiB5Mj0iMTM4My4xMDU1Ii8+PGxpbmUgc3R5bGU9InN0cm9rZTojMDAwMDAwO3N0cm9rZS13aWR0aDoxOyIgeDE9IjAiIHgyPSIxMjY5LjUiIHkxPSIxMzg2LjEwNTUiIHkyPSIxMzg2LjEwNTUiLz48cmVjdCBmaWxsPSIjRUVFRUVFIiBoZWlnaHQ9IjIxLjkxNDEiIHN0eWxlPSJzdHJva2U6IzAwMDAwMDtzdHJva2Utd2lkdGg6MjsiIHdpZHRoPSIxMzcuNSIgeD0iNTY2IiB5PSIxMzczLjE0ODQiLz48dGV4dCBmaWxsPSIjMDAwMDAwIiBmb250LWZhbWlseT0ic2Fucy1zZXJpZiIgZm9udC1zaXplPSIxMyIgZm9udC13ZWlnaHQ9ImJvbGQiIGxlbmd0aEFkanVzdD0ic3BhY2luZyIgdGV4dExlbmd0aD0iMTE3IiB4PSI1NzIiIHk9IjEzODkuNDM3NSI+RW1haWwgVmVyaWZpY2F0aW9uPC90ZXh0PjxnIGNsYXNzPSJtZXNzYWdlIiBkYXRhLXBhcnRpY2lwYW50LTE9IlVzZXIiIGRhdGEtcGFydGljaXBhbnQtMj0iRW1haWwiPjxwb2x5Z29uIGZpbGw9IiMxODE4MTgiIHBvaW50cz0iNTYyLDE0MjAuOTc2Niw1NzIsMTQyNC45NzY2LDU2MiwxNDI4Ljk3NjYsNTY2LDE0MjQuOTc2NiIgc3R5bGU9InN0cm9rZTojMTgxODE4O3N0cm9rZS13aWR0aDoxOyIvPjxsaW5lIHN0eWxlPSJzdHJva2U6IzE4MTgxODtzdHJva2Utd2lkdGg6MTsiIHgxPSIzNyIgeDI9IjU2OCIgeTE9IjE0MjQuOTc2NiIgeTI9IjE0MjQuOTc2NiIvPjx0ZXh0IGZpbGw9IiMwMDAwMDAiIGZvbnQtZmFtaWx5PSJzYW5zLXNlcmlmIiBmb250LXNpemU9IjEzIiBsZW5ndGhBZGp1c3Q9InNwYWNpbmciIHRleHRMZW5ndGg9IjI0NyIgeD0iNDQiIHk9IjE0MjEuMzUxNiI+T3BlbiBHbWFpbCBhbmQgY2xpY2sgdmVyaWZpY2F0aW9uIGxpbms8L3RleHQ+PC9nPjxnIGNsYXNzPSJtZXNzYWdlIiBkYXRhLXBhcnRpY2lwYW50LTE9IkVtYWlsIiBkYXRhLXBhcnRpY2lwYW50LTI9IkJyb3dzZXIiPjxwb2x5Z29uIGZpbGw9IiMxODE4MTgiIHBvaW50cz0iNzI5LDE0NDguODkwNiw3MzksMTQ1Mi44OTA2LDcyOSwxNDU2Ljg5MDYsNzMzLDE0NTIuODkwNiIgc3R5bGU9InN0cm9rZTojMTgxODE4O3N0cm9rZS13aWR0aDoxOyIvPjxsaW5lIHN0eWxlPSJzdHJva2U6IzE4MTgxODtzdHJva2Utd2lkdGg6MTsiIHgxPSI1NzQiIHgyPSI3MzUiIHkxPSIxNDUyLjg5MDYiIHkyPSIxNDUyLjg5MDYiLz48dGV4dCBmaWxsPSIjMDAwMDAwIiBmb250LWZhbWlseT0ic2Fucy1zZXJpZiIgZm9udC1zaXplPSIxMyIgbGVuZ3RoQWRqdXN0PSJzcGFjaW5nIiB0ZXh0TGVuZ3RoPSIxNDMiIHg9IjU4MSIgeT0iMTQ0OS4yNjU2Ij5PcGVuIHZlcmlmaWNhdGlvbiBsaW5rPC90ZXh0PjwvZz48ZyBjbGFzcz0ibWVzc2FnZSIgZGF0YS1wYXJ0aWNpcGFudC0xPSJCcm93c2VyIiBkYXRhLXBhcnRpY2lwYW50LTI9IkJhY2tlbmQiPjxwb2x5Z29uIGZpbGw9IiMxODE4MTgiIHBvaW50cz0iMTA1MywxNDc2LjgwNDcsMTA2MywxNDgwLjgwNDcsMTA1MywxNDg0LjgwNDcsMTA1NywxNDgwLjgwNDciIHN0eWxlPSJzdHJva2U6IzE4MTgxODtzdHJva2Utd2lkdGg6MTsiLz48bGluZSBzdHlsZT0ic3Ryb2tlOiMxODE4MTg7c3Ryb2tlLXdpZHRoOjE7IiB4MT0iNzQxIiB4Mj0iMTA1OSIgeTE9IjE0ODAuODA0NyIgeTI9IjE0ODAuODA0NyIvPjx0ZXh0IGZpbGw9IiMwMDAwMDAiIGZvbnQtZmFtaWx5PSJzYW5zLXNlcmlmIiBmb250LXNpemU9IjEzIiBsZW5ndGhBZGp1c3Q9InNwYWNpbmciIHRleHRMZW5ndGg9IjExNyIgeD0iNzQ4IiB5PSIxNDc3LjE3OTciPlZlcmlmeSBlbWFpbCB0b2tlbjwvdGV4dD48L2c+PGcgY2xhc3M9Im1lc3NhZ2UiIGRhdGEtcGFydGljaXBhbnQtMT0iQmFja2VuZCIgZGF0YS1wYXJ0aWNpcGFudC0yPSJCcm93c2VyIj48cG9seWdvbiBmaWxsPSIjMTgxODE4IiBwb2ludHM9Ijc1MiwxNTA0LjcxODgsNzQyLDE1MDguNzE4OCw3NTIsMTUxMi43MTg4LDc0OCwxNTA4LjcxODgiIHN0eWxlPSJzdHJva2U6IzE4MTgxODtzdHJva2Utd2lkdGg6MTsiLz48bGluZSBzdHlsZT0ic3Ryb2tlOiMxODE4MTg7c3Ryb2tlLXdpZHRoOjE7IiB4MT0iNzQ2IiB4Mj0iMTA2NCIgeTE9IjE1MDguNzE4OCIgeTI9IjE1MDguNzE4OCIvPjx0ZXh0IGZpbGw9IiMwMDAwMDAiIGZvbnQtZmFtaWx5PSJzYW5zLXNlcmlmIiBmb250LXNpemU9IjEzIiBsZW5ndGhBZGp1c3Q9InNwYWNpbmciIHRleHRMZW5ndGg9IjE1NiIgeD0iNzU4IiB5PSIxNTA1LjA5MzgiPlJldHVybiAiU3VjY2VzcyIgbWVzc2FnZTwvdGV4dD48L2c+PHJlY3QgZmlsbD0iI0VFRUVFRSIgaGVpZ2h0PSIzIiBzdHlsZT0ic3Ryb2tlOiNFRUVFRUU7c3Ryb2tlLXdpZHRoOjE7IiB3aWR0aD0iMTI2OS41IiB4PSIwIiB5PSIxNTM2LjY3NTgiLz48bGluZSBzdHlsZT0ic3Ryb2tlOiMwMDAwMDA7c3Ryb2tlLXdpZHRoOjE7IiB4MT0iMCIgeDI9IjEyNjkuNSIgeTE9IjE1MzYuNjc1OCIgeTI9IjE1MzYuNjc1OCIvPjxsaW5lIHN0eWxlPSJzdHJva2U6IzAwMDAwMDtzdHJva2Utd2lkdGg6MTsiIHgxPSIwIiB4Mj0iMTI2OS41IiB5MT0iMTUzOS42NzU4IiB5Mj0iMTUzOS42NzU4Ii8+PHJlY3QgZmlsbD0iI0VFRUVFRSIgaGVpZ2h0PSIyMS45MTQxIiBzdHlsZT0ic3Ryb2tlOiMwMDAwMDA7c3Ryb2tlLXdpZHRoOjI7IiB3aWR0aD0iMTM3LjUiIHg9IjU2NiIgeT0iMTUyNi43MTg4Ii8+PHRleHQgZmlsbD0iIzAwMDAwMCIgZm9udC1mYW1pbHk9InNhbnMtc2VyaWYiIGZvbnQtc2l6ZT0iMTMiIGZvbnQtd2VpZ2h0PSJib2xkIiBsZW5ndGhBZGp1c3Q9InNwYWNpbmciIHRleHRMZW5ndGg9IjExNyIgeD0iNTcyIiB5PSIxNTQzLjAwNzgiPkFmdGVyIFZlcmlmaWNhdGlvbjwvdGV4dD48ZyBjbGFzcz0ibWVzc2FnZSIgZGF0YS1wYXJ0aWNpcGFudC0xPSJCcm93c2VyIiBkYXRhLXBhcnRpY2lwYW50LTI9IlVzZXIiPjxwb2x5Z29uIGZpbGw9IiMxODE4MTgiIHBvaW50cz0iNDgsMTU3NC41NDY5LDM4LDE1NzguNTQ2OSw0OCwxNTgyLjU0NjksNDQsMTU3OC41NDY5IiBzdHlsZT0ic3Ryb2tlOiMxODE4MTg7c3Ryb2tlLXdpZHRoOjE7Ii8+PGxpbmUgc3R5bGU9InN0cm9rZTojMTgxODE4O3N0cm9rZS13aWR0aDoxOyIgeDE9IjQyIiB4Mj0iNzQwIiB5MT0iMTU3OC41NDY5IiB5Mj0iMTU3OC41NDY5Ii8+PHRleHQgZmlsbD0iIzAwMDAwMCIgZm9udC1mYW1pbHk9InNhbnMtc2VyaWYiIGZvbnQtc2l6ZT0iMTMiIGxlbmd0aEFkanVzdD0ic3BhY2luZyIgdGV4dExlbmd0aD0iMTM2LjUiIHg9IjU0IiB5PSIxNTc0LjkyMTkiPlNlZSAiU3VjY2VzcyIgbWVzc2FnZTwvdGV4dD48L2c+PGcgY2xhc3M9Im1lc3NhZ2UiIGRhdGEtcGFydGljaXBhbnQtMT0iVXNlciIgZGF0YS1wYXJ0aWNpcGFudC0yPSJMb2dpbiI+PHBvbHlnb24gZmlsbD0iIzE4MTgxOCIgcG9pbnRzPSIyMTgsMTYwMi40NjA5LDIyOCwxNjA2LjQ2MDksMjE4LDE2MTAuNDYwOSwyMjIsMTYwNi40NjA5IiBzdHlsZT0ic3Ryb2tlOiMxODE4MTg7c3Ryb2tlLXdpZHRoOjE7Ii8+PGxpbmUgc3R5bGU9InN0cm9rZTojMTgxODE4O3N0cm9rZS13aWR0aDoxOyIgeDE9IjM3IiB4Mj0iMjI0IiB5MT0iMTYwNi40NjA5IiB5Mj0iMTYwNi40NjA5Ii8+PHRleHQgZmlsbD0iIzAwMDAwMCIgZm9udC1mYW1pbHk9InNhbnMtc2VyaWYiIGZvbnQtc2l6ZT0iMTMiIGxlbmd0aEFkanVzdD0ic3BhY2luZyIgdGV4dExlbmd0aD0iMTY5IiB4PSI0NCIgeT0iMTYwMi44MzU5Ij5SZXR1cm4gdG8gQXBwIExvZ2luIFNjcmVlbjwvdGV4dD48L2c+PGcgY2xhc3M9Im1lc3NhZ2UiIGRhdGEtcGFydGljaXBhbnQtMT0iVXNlciIgZGF0YS1wYXJ0aWNpcGFudC0yPSJMb2dpbiI+PHBvbHlnb24gZmlsbD0iIzE4MTgxOCIgcG9pbnRzPSIyMTgsMTYzMC4zNzUsMjI4LDE2MzQuMzc1LDIxOCwxNjM4LjM3NSwyMjIsMTYzNC4zNzUiIHN0eWxlPSJzdHJva2U6IzE4MTgxODtzdHJva2Utd2lkdGg6MTsiLz48bGluZSBzdHlsZT0ic3Ryb2tlOiMxODE4MTg7c3Ryb2tlLXdpZHRoOjE7IiB4MT0iMzciIHgyPSIyMjQiIHkxPSIxNjM0LjM3NSIgeTI9IjE2MzQuMzc1Ii8+PHRleHQgZmlsbD0iIzAwMDAwMCIgZm9udC1mYW1pbHk9InNhbnMtc2VyaWYiIGZvbnQtc2l6ZT0iMTMiIGxlbmd0aEFkanVzdD0ic3BhY2luZyIgdGV4dExlbmd0aD0iMTQzIiB4PSI0NCIgeT0iMTYzMC43NSI+RW50ZXIgRW1haWwgJmFtcDsgUGFzc3dvcmQ8L3RleHQ+PC9nPjxnIGNsYXNzPSJtZXNzYWdlIiBkYXRhLXBhcnRpY2lwYW50LTE9IlVzZXIiIGRhdGEtcGFydGljaXBhbnQtMj0iTG9naW4iPjxwb2x5Z29uIGZpbGw9IiMxODE4MTgiIHBvaW50cz0iMjE4LDE2NTguMjg5MSwyMjgsMTY2Mi4yODkxLDIxOCwxNjY2LjI4OTEsMjIyLDE2NjIuMjg5MSIgc3R5bGU9InN0cm9rZTojMTgxODE4O3N0cm9rZS13aWR0aDoxOyIvPjxsaW5lIHN0eWxlPSJzdHJva2U6IzE4MTgxODtzdHJva2Utd2lkdGg6MTsiIHgxPSIzNyIgeDI9IjIyNCIgeTE9IjE2NjIuMjg5MSIgeTI9IjE2NjIuMjg5MSIvPjx0ZXh0IGZpbGw9IiMwMDAwMDAiIGZvbnQtZmFtaWx5PSJzYW5zLXNlcmlmIiBmb250LXNpemU9IjEzIiBsZW5ndGhBZGp1c3Q9InNwYWNpbmciIHRleHRMZW5ndGg9Ijg0LjUiIHg9IjQ0IiB5PSIxNjU4LjY2NDEiPkNsaWNrICJMb2dpbiI8L3RleHQ+PC9nPjxnIGNsYXNzPSJtZXNzYWdlIiBkYXRhLXBhcnRpY2lwYW50LTE9IkxvZ2luIiBkYXRhLXBhcnRpY2lwYW50LTI9IkJhY2tlbmQiPjxwb2x5Z29uIGZpbGw9IiMxODE4MTgiIHBvaW50cz0iMTA1MywxNjg2LjIwMzEsMTA2MywxNjkwLjIwMzEsMTA1MywxNjk0LjIwMzEsMTA1NywxNjkwLjIwMzEiIHN0eWxlPSJzdHJva2U6IzE4MTgxODtzdHJva2Utd2lkdGg6MTsiLz48bGluZSBzdHlsZT0ic3Ryb2tlOiMxODE4MTg7c3Ryb2tlLXdpZHRoOjE7IiB4MT0iMjMwIiB4Mj0iMTA1OSIgeTE9IjE2OTAuMjAzMSIgeTI9IjE2OTAuMjAzMSIvPjx0ZXh0IGZpbGw9IiMwMDAwMDAiIGZvbnQtZmFtaWx5PSJzYW5zLXNlcmlmIiBmb250LXNpemU9IjEzIiBsZW5ndGhBZGp1c3Q9InNwYWNpbmciIHRleHRMZW5ndGg9Ijc4IiB4PSIyMzciIHk9IjE2ODYuNTc4MSI+QXV0aGVudGljYXRlPC90ZXh0PjwvZz48ZyBjbGFzcz0ibWVzc2FnZSIgZGF0YS1wYXJ0aWNpcGFudC0xPSJCYWNrZW5kIiBkYXRhLXBhcnRpY2lwYW50LTI9IkxvZ2luIj48cG9seWdvbiBmaWxsPSIjMTgxODE4IiBwb2ludHM9IjI0MSwxNzE0LjExNzIsMjMxLDE3MTguMTE3MiwyNDEsMTcyMi4xMTcyLDIzNywxNzE4LjExNzIiIHN0eWxlPSJzdHJva2U6IzE4MTgxODtzdHJva2Utd2lkdGg6MTsiLz48bGluZSBzdHlsZT0ic3Ryb2tlOiMxODE4MTg7c3Ryb2tlLXdpZHRoOjE7c3Ryb2tlLWRhc2hhcnJheToyLjAsMi4wOyIgeDE9IjIzNSIgeDI9IjEwNjQiIHkxPSIxNzE4LjExNzIiIHkyPSIxNzE4LjExNzIiLz48dGV4dCBmaWxsPSIjMDAwMDAwIiBmb250LWZhbWlseT0ic2Fucy1zZXJpZiIgZm9udC1zaXplPSIxMyIgbGVuZ3RoQWRqdXN0PSJzcGFjaW5nIiB0ZXh0TGVuZ3RoPSIxNDkuNSIgeD0iMjQ3IiB5PSIxNzE0LjQ5MjIiPlZhbGlkIGNyZWRlbnRpYWxzICYjODU5NDsgWWVzPC90ZXh0PjwvZz48ZyBjbGFzcz0ibWVzc2FnZSIgZGF0YS1wYXJ0aWNpcGFudC0xPSJMb2dpbiIgZGF0YS1wYXJ0aWNpcGFudC0yPSJVc2VyIj48cG9seWdvbiBmaWxsPSIjMTgxODE4IiBwb2ludHM9IjQ4LDE3NDIuMDMxMywzOCwxNzQ2LjAzMTMsNDgsMTc1MC4wMzEzLDQ0LDE3NDYuMDMxMyIgc3R5bGU9InN0cm9rZTojMTgxODE4O3N0cm9rZS13aWR0aDoxOyIvPjxsaW5lIHN0eWxlPSJzdHJva2U6IzE4MTgxODtzdHJva2Utd2lkdGg6MTsiIHgxPSI0MiIgeDI9IjIyOSIgeTE9IjE3NDYuMDMxMyIgeTI9IjE3NDYuMDMxMyIvPjx0ZXh0IGZpbGw9IiMwMDAwMDAiIGZvbnQtZmFtaWx5PSJzYW5zLXNlcmlmIiBmb250LXNpemU9IjEzIiBsZW5ndGhBZGp1c3Q9InNwYWNpbmciIHRleHRMZW5ndGg9IjE0OS41IiB4PSI1NCIgeT0iMTc0Mi40MDYzIj5OYXZpZ2F0ZSB0byBIb21lIFNjcmVlbjwvdGV4dD48L2c+PCEtLVNSQz1bZkxQQlJqaW00RHRoNTBDamthaEdMSlMxdDIwcmFoSDBhR09zZEE5QkxYaEJINkhJOUlheGtLMEZxMkZzOTFyLTk5Nkl1aEplb1pCdnZsVmMzS2JNNkFiV2VyNWIzTEU2NXhuWG1hMy1NTFBTbUJmR1kyODdmaTRqZjlXcmhtSGljWFhiYnBQRDJobFRDcngzTXhZc2xteGJsYkJHMW9NRmI4SlIzanlmT0JkM3VqNVJuVzdUeWZtX0xab1lBNjZEd2UyQWVqem1YVC1QSFhfMXhzUlBPazVnenpOMWxQODVRV3NCSFVQTXB6LTdaR2x1cWcyMGd3UVBSNW1CR21pLUJxTzF4dmRNSHdkQTJOMVBTb2gwNHZqZFZmTXNrcUdsQTVOd2VTZkE1OFFwTWlFTUVpRFFpeEZfMnNRdTU1YzdGZXlTRngyUTl1UU55RmxkQl9ZNlVlWllhaGMwRXRSVzVKQzhIaTk3a1NWMFA5UW5zaTBkU0hYeGNlc3RHakNnMFZhQ0ZXVEtJZ2Y5dEZMRTdscU14OGJXTGM3TXFOeVpMSUxESnprZjdXRzZIblFONFBjMzZhUjVaZ0U0a2hpOFlQdGxnQ0FBUV9oMENpWHI1WGpJTWFnZ054SU9QejdrakJiLXRSUXJ3SDlIZ0Q0Q0Q4X1RFejdwUlIzNDlxZjktc3ViQXY3ejRGOE0xSWZSbHVpMVhJbUhBN0pEbk1EaXFDTG82TmVla2VCSktrOUVYWHYyX1hMMUstazExS0Zoc3pCekI1bGJsVUktcUlVOFZkVFV5ZWh4XzR3SV84MkFSdnpWZVRYTFFIYS1NRkhhUjZBeWNubEJadWxpSTVyUVF3eDEySmlIVnZnR1hWYTBNQ3hwNThpbE5uQ3JUdFppdlBVM3psaDNNY0NWYjhUdmVrSm5nUTdad2FHNk9HUnpqQnRTZzd2NjF2LWtzWm1UbXJFaWh3WW5kTkhWdmR3NUZyaEtuYlFobDQ2aWYxY3IxUlVsQUl0dGd5d2Q2UkFzMXFUdC14bi1PM1hhc3FKZFhCLWNIY3JRa09iTkpaN1owdzh0WTh4eGl4d1ZQekgzaVVMZ0ZwdHpVeUN1Ym10YjRaUWMyY3dqOVVjSXNQbWUydmlUQW1oUDJaRWx1c00yOEhkclR6c0JPbnVGWC15MTdCZFAtUkYxYWtsSDNwNGl1aFZwdkl4NXNfeGdBcm85WU1fZFNEMkJseld4b29jbzB3SHB3a08tZjZhYWhJT3l6M3d4VXNkVDViT0dnTGdramhQbHV1QVlVOXRnNDZTeVo4S0xHYjYzdzRhMHlMbGZ2RmxXcE4teTNndzZYbTMtdEpGV05yeTFWbTAwXS0tPjwvZz48L3N2Zz4=;" vertex="1" parent="1">
            <mxGeometry x="-50" y="-520" width="1276" height="1843" as="geometry" />
          </mxCell>
        </UserObject>
      </root>
    </mxGraphModel>
  </diagram>
</mxfile>
